<svg width="14" height="14" viewBox="0 0 14 14" fill="none" xmlns="http://www.w3.org/2000/svg">
<g id="about-svgrepo-com 1">
<g id="Page-1">
<g id="about-white">
<path id="Shape" fill-rule="evenodd" clip-rule="evenodd" d="M6.99984 1.1665C3.77819 1.1665 1.1665 3.77815 1.1665 6.99984C1.1665 10.2215 3.77819 12.8332 6.99984 12.8332C10.2215 12.8332 12.8332 10.2215 12.8332 6.99984C12.8332 3.77815 10.2215 1.1665 6.99984 1.1665ZM6.99984 11.6665C4.42664 11.6665 2.33317 9.57303 2.33317 6.99984C2.33317 4.42664 4.42664 2.33317 6.99984 2.33317C9.57306 2.33317 11.6665 4.42664 11.6665 6.99984C11.6665 9.57303 9.57306 11.6665 6.99984 11.6665ZM7.73028 4.6665C7.73028 5.08944 7.42234 5.39567 7.00576 5.39567C6.57233 5.39567 6.27195 5.08944 6.27195 4.65841C6.27195 4.24414 6.58046 3.93734 7.00576 3.93734C7.42234 3.93734 7.73028 4.24414 7.73028 4.6665ZM6.41778 6.4165H7.58445V9.9165H6.41778V6.4165Z" fill="#E8711F"/>
</g>
</g>
</g>
</svg>
