<svg width="24" height="24" viewBox="0 0 24 24" fill="none" xmlns="http://www.w3.org/2000/svg">
<g clip-path="url(#clip0_332_1533)">
<path d="M16.7403 14.6655H15.7061V16.7464H16.7403C17.3951 16.7464 17.9268 16.2798 17.9268 15.7056C17.9268 15.1321 17.3951 14.6655 16.7403 14.6655Z"/>
<path d="M16.5049 8.92041C12.3652 8.92041 9.00928 12.2764 9.00928 16.4153C9.00928 20.5557 12.3652 23.9102 16.5049 23.9102C20.6438 23.9102 23.9998 20.5557 23.9998 16.4153C23.9998 12.2764 20.6438 8.92041 16.5049 8.92041ZM16.74 17.9036H15.7058V19.4183C15.7058 19.709 15.47 19.9456 15.1792 19.9456H14.9148C14.6233 19.9456 14.3874 19.709 14.3874 19.4183V14.0364C14.3874 13.7456 14.6233 13.5098 14.9148 13.5098H16.74C18.1221 13.5098 19.2464 14.4949 19.2464 15.7056C19.2464 16.9177 18.1221 17.9036 16.74 17.9036Z"/>
<path d="M12.1743 2.68163C12.1743 4.11352 9.44972 5.27368 6.08719 5.27368C2.72536 5.27368 0 4.11352 0 2.68163C0 1.25049 2.72536 0.090332 6.08714 0.090332C9.44972 0.090332 12.1743 1.25049 12.1743 2.68163Z"/>
<path d="M0 7.06956C0 8.5007 2.72536 9.66085 6.08714 9.66085C9.44967 9.66085 12.1743 8.5007 12.1743 7.06956V6.42502C12.1743 6.22726 12.0747 6.04271 11.9099 5.93284C11.745 5.82441 11.5356 5.80468 11.354 5.88301C11.354 5.88301 9.44967 7.05929 6.08714 7.05929C2.72531 7.05929 0.821766 5.88301 0.821766 5.88301C0.638672 5.80463 0.429188 5.82441 0.265125 5.93284C0.0996094 6.04266 0 6.22726 0 6.42502V7.06956Z"/>
<path d="M8.05422 11.4523C7.55763 12.2872 7.18849 13.1998 6.96292 14.1666C6.67582 14.1856 6.3843 14.1937 6.08547 14.1937C2.7266 14.1937 0.000488281 13.0328 0.000488281 11.5994V10.9593C0.000488281 10.7616 0.0978945 10.5748 0.26491 10.4657C0.42752 10.3573 0.637707 10.3375 0.820098 10.4151C0.820098 10.4151 2.7266 11.5921 6.08547 11.5921C6.81203 11.5921 7.46828 11.5379 8.05422 11.4523Z"/>
<path d="M6.97099 18.6982C6.68388 18.718 6.3843 18.726 6.08547 18.726C2.7266 18.726 0.000488281 17.5644 0.000488281 16.1354V15.4909C0.000488281 15.2931 0.0978945 15.1064 0.26491 14.9973C0.42752 14.8888 0.637707 14.8691 0.820098 14.9474C0.820098 14.9474 2.7266 16.1237 6.08547 16.1237C6.29936 16.1237 6.50514 16.1201 6.70657 16.112C6.69925 16.2131 6.69925 16.3142 6.69925 16.4152C6.69925 17.1996 6.79225 17.9643 6.97099 18.6982Z"/>
<path d="M9.15724 22.9003C8.25635 23.1295 7.20827 23.2577 6.08547 23.2577C2.7266 23.2577 0.000488281 22.0961 0.000488281 20.6671V20.0226C0.000488281 19.8248 0.0978945 19.6381 0.26491 19.5296C0.42752 19.4212 0.637707 19.4015 0.820098 19.4791C0.820098 19.4791 2.7266 20.6554 6.08547 20.6554C6.637 20.6554 7.15333 20.6246 7.62358 20.5704C8.02347 21.4208 8.53985 22.2052 9.15724 22.9003Z" />
</g>
<defs>
<clipPath id="clip0_332_1533">
<rect width="24" height="24" fill="white"/>
</clipPath>
</defs>
</svg>
