<svg width="20" height="20" viewBox="0 0 20 20" fill="none" xmlns="http://www.w3.org/2000/svg">
<g clip-path="url(#clip0_332_1713)">
<path d="M18.4375 12.0891V10C18.4375 9.59313 18.1753 9.24938 17.8125 9.12V8.125C17.8125 3.81719 14.3078 0.3125 10 0.3125C5.69219 0.3125 2.1875 3.81719 2.1875 8.125V9.12C1.82469 9.24938 1.5625 9.59313 1.5625 10V12.0891C0.824687 12.4409 0.3125 13.1922 0.3125 14.0625V14.6875C0.3125 15.8938 1.29406 16.875 2.5 16.875H2.85687C2.99656 17.4125 3.48156 17.8125 4.0625 17.8125H4.6875C5.37687 17.8125 5.9375 17.2519 5.9375 16.5625V14.085C6.00969 14.1659 6.08562 14.2437 6.16906 14.3153L10 17.5991L13.8312 14.3156C13.9147 14.2441 13.9903 14.1663 14.0625 14.0853V16.5625C14.0625 17.2409 14.6066 17.7922 15.2812 17.8094C15.1372 18.5231 14.5056 19.0625 13.75 19.0625H12.0681L11.7022 18.3306C11.5425 18.0109 11.2209 17.8125 10.8638 17.8125H8.75C8.23313 17.8125 7.8125 18.2331 7.8125 18.75C7.8125 19.2669 8.23313 19.6875 8.75 19.6875H11.875H12.3806H13.75C14.8497 19.6875 15.76 18.8709 15.9125 17.8125H15.9375C16.5184 17.8125 17.0034 17.4125 17.1431 16.875H17.5C18.7059 16.875 19.6875 15.8938 19.6875 14.6875V14.0625C19.6875 13.1922 19.1753 12.4409 18.4375 12.0891ZM8.75 19.0625C8.5775 19.0625 8.4375 18.9222 8.4375 18.75C8.4375 18.5778 8.5775 18.4375 8.75 18.4375H10.8638C10.9828 18.4375 11.09 18.5037 11.1434 18.6103L11.3694 19.0625H8.75ZM10 0.9375C13.9634 0.9375 17.1875 4.16188 17.1875 8.125V9.0625H16.5625V8.125C16.5625 4.50625 13.6184 1.5625 10 1.5625C6.38156 1.5625 3.4375 4.50625 3.4375 8.125V9.0625H2.8125V8.125C2.8125 4.16188 6.03656 0.9375 10 0.9375ZM15.3125 10V10.9375C14.9575 10.9375 14.6388 11.0878 14.4109 11.3259C14.0791 10.6875 13.4756 10.2128 12.7537 10.0566C12.4888 8.76219 11.3447 7.8125 10 7.8125C8.65438 7.8125 7.51094 8.76188 7.24594 10.0566C6.52437 10.2128 5.92094 10.6875 5.58906 11.3259C5.36125 11.0878 5.0425 10.9375 4.6875 10.9375V10C4.6875 9.59313 4.42531 9.24938 4.0625 9.12V8.125C4.0625 4.85094 6.72594 2.1875 10 2.1875C13.2741 2.1875 15.9375 4.85094 15.9375 8.125V9.12C15.5747 9.24938 15.3125 9.59313 15.3125 10ZM12.0956 10H12.0078C11.2397 10 10.5059 10.3669 10.0456 10.9812L10 11.0416L9.95438 10.9809C9.49406 10.3669 8.76031 10 7.99219 10H7.90406C8.17469 9.08781 9.01781 8.4375 10 8.4375C10.9816 8.4375 11.825 9.08813 12.0956 10ZM0.9375 14.6875V14.0625C0.9375 13.2009 1.63844 12.5 2.5 12.5H2.8125V16.25H2.5C1.63844 16.25 0.9375 15.5491 0.9375 14.6875ZM2.85687 11.875H2.5C2.39375 11.875 2.29 11.8853 2.1875 11.9V10C2.1875 9.82781 2.3275 9.6875 2.5 9.6875H3.75C3.9225 9.6875 4.0625 9.82781 4.0625 10V10.9375C3.48156 10.9375 2.99656 11.3375 2.85687 11.875ZM5.3125 16.5625C5.3125 16.9072 5.03219 17.1875 4.6875 17.1875H4.0625C3.71781 17.1875 3.4375 16.9072 3.4375 16.5625V12.1875C3.4375 11.8428 3.71781 11.5625 4.0625 11.5625H4.6875C5.03219 11.5625 5.3125 11.8428 5.3125 12.1875V16.5625ZM13.4244 13.8409L10 16.7759L6.57594 13.8409C6.17 13.4931 5.9375 12.9872 5.9375 12.4531C5.9375 11.445 6.7575 10.625 7.76562 10.625H7.9925C8.565 10.625 9.11156 10.8984 9.455 11.3562L10 12.0834L10.5453 11.3562C10.8888 10.8984 11.4353 10.625 12.0078 10.625H12.2347C13.2428 10.625 14.0628 11.445 14.0628 12.4531C14.0625 12.9872 13.83 13.4931 13.4244 13.8409ZM16.5625 16.5625C16.5625 16.9072 16.2822 17.1875 15.9375 17.1875H15.3125C14.9678 17.1875 14.6875 16.9072 14.6875 16.5625V12.1875C14.6875 11.8428 14.9678 11.5625 15.3125 11.5625H15.9375C16.2822 11.5625 16.5625 11.8428 16.5625 12.1875V16.5625ZM15.9375 10.9375V10C15.9375 9.82781 16.0775 9.6875 16.25 9.6875H17.5C17.6725 9.6875 17.8125 9.82781 17.8125 10V11.9C17.71 11.8853 17.6063 11.875 17.5 11.875H17.1431C17.0034 11.3375 16.5184 10.9375 15.9375 10.9375ZM19.0625 14.6875C19.0625 15.5491 18.3616 16.25 17.5 16.25H17.1875V12.5H17.5C18.3616 12.5 19.0625 13.2009 19.0625 14.0625V14.6875Z" fill="#E8711F"/>
<path d="M13.7191 8.99875L14.1334 8.12937L12.4953 6.49125L11.6259 6.90562C11.5778 6.88437 11.5288 6.86406 11.4797 6.845L11.1584 5.9375H8.84156L8.52031 6.845C8.47125 6.86437 8.4225 6.88437 8.37406 6.90562L7.50469 6.49125L5.86656 8.12937L6.28094 8.99875C6.25969 9.0475 6.23938 9.09625 6.22031 9.145L5.3125 9.46656V10.3125H5.9375V9.90844L6.70781 9.63531L6.75719 9.49406C6.79937 9.37344 6.84969 9.25188 6.90719 9.1325L6.9725 8.9975L6.62063 8.25906L7.63375 7.24531L8.37219 7.5975L8.5075 7.53219C8.62563 7.475 8.7475 7.42437 8.86875 7.38187L9.01 7.3325L9.28344 6.5625H10.7166L10.9897 7.3325L11.1309 7.38187C11.2525 7.42437 11.3741 7.475 11.4922 7.53219L11.6275 7.5975L12.3659 7.24531L13.3791 8.25906L13.0272 8.9975L13.0925 9.1325C13.1503 9.25188 13.2006 9.37344 13.2425 9.49406L13.2919 9.63531L14.0625 9.90844V10.3125H14.6875V9.46656L13.78 9.145C13.7606 9.09625 13.7406 9.0475 13.7191 8.99875Z" fill="#E8711F"/>
<path d="M15.9375 12.1875H15.3125V12.8125H15.9375V12.1875Z" fill="#E8711F"/>
<path d="M15.9375 13.4375H15.3125V15.3125H15.9375V13.4375Z" fill="#E8711F"/>
<path d="M15.9375 15.9375H15.3125V16.5625H15.9375V15.9375Z" fill="#E8711F"/>
<path d="M4.6875 12.1875H4.0625V12.8125H4.6875V12.1875Z" fill="#E8711F"/>
<path d="M4.6875 13.4375H4.0625V15.3125H4.6875V13.4375Z" fill="#E8711F"/>
<path d="M4.6875 15.9375H4.0625V16.5625H4.6875V15.9375Z" fill="#E8711F"/>
</g>
<defs>
<clipPath id="clip0_332_1713">
<rect width="20" height="20" fill="white"/>
</clipPath>
</defs>
</svg>
