<svg width="20" height="20" viewBox="0 0 20 20" fill="none" xmlns="http://www.w3.org/2000/svg">
<g id="business-fund-income-svgrepo-com 2">
<g id="Group">
<g id="Vector">
<mask id="path-1-inside-1_425_3838" fill="white">
<path d="M10.4114 4.47339C8.24269 4.47339 6.47827 6.23776 6.47827 8.40647C6.47827 9.03229 6.62897 9.65507 6.91394 10.2074C6.98085 10.3373 7.14062 10.3882 7.27042 10.3213C7.4003 10.2542 7.45132 10.0947 7.38425 9.96479C7.13429 9.48026 7.00749 8.95597 7.00749 8.40647C7.00749 6.52956 8.53441 5.00265 10.4113 5.00265C12.2882 5.00265 13.8152 6.52956 13.8152 8.40647C13.8152 9.53503 13.2573 10.5881 12.3226 11.2235C12.2017 11.3057 12.1704 11.4702 12.2525 11.5911C12.3038 11.6664 12.3869 11.7069 12.4716 11.7069C12.5228 11.7069 12.5746 11.6921 12.6201 11.6612C13.6999 10.9271 14.3444 9.71046 14.3444 8.40647C14.3445 6.23776 12.5801 4.47339 10.4114 4.47339Z"/>
</mask>
<path d="M10.4114 4.47339C8.24269 4.47339 6.47827 6.23776 6.47827 8.40647C6.47827 9.03229 6.62897 9.65507 6.91394 10.2074C6.98085 10.3373 7.14062 10.3882 7.27042 10.3213C7.4003 10.2542 7.45132 10.0947 7.38425 9.96479C7.13429 9.48026 7.00749 8.95597 7.00749 8.40647C7.00749 6.52956 8.53441 5.00265 10.4113 5.00265C12.2882 5.00265 13.8152 6.52956 13.8152 8.40647C13.8152 9.53503 13.2573 10.5881 12.3226 11.2235C12.2017 11.3057 12.1704 11.4702 12.2525 11.5911C12.3038 11.6664 12.3869 11.7069 12.4716 11.7069C12.5228 11.7069 12.5746 11.6921 12.6201 11.6612C13.6999 10.9271 14.3444 9.71046 14.3444 8.40647C14.3445 6.23776 12.5801 4.47339 10.4114 4.47339Z" fill="#E8711F"/>
<path d="M6.91394 10.2074L22.0263 2.42171L22.0218 2.41307L6.91394 10.2074ZM7.27042 10.3213L15.0562 25.4336L15.0669 25.4281L7.27042 10.3213ZM7.38425 9.9648L-7.72382 17.7588L-7.72069 17.7648L7.38425 9.9648ZM12.3226 11.2235L2.76572 -2.83593L2.76305 -2.83411L12.3226 11.2235ZM12.2525 11.5911L-1.8086 21.1454L-1.80197 21.1552L12.2525 11.5911ZM12.6201 11.6612L22.1721 25.7238L22.1774 25.7202L12.6201 11.6612ZM14.3444 8.40647L-2.65556 8.40617V8.40647H14.3444ZM10.4114 -12.5266C-1.14605 -12.5266 -10.5217 -3.15119 -10.5217 8.40647H23.4783C23.4783 15.6267 17.6314 21.4734 10.4114 21.4734V-12.5266ZM-10.5217 8.40647C-10.5217 11.7259 -9.73059 15.0233 -8.19395 18.0018L22.0218 2.41307C22.9885 4.28687 23.4783 6.33867 23.4783 8.40647H-10.5217ZM-8.19841 17.9931C-3.81983 26.4921 6.60287 29.7887 15.0562 25.4336L-0.515387 -4.79101C7.67836 -9.0124 17.7815 -5.81752 22.0263 2.42171L-8.19841 17.9931ZM15.0669 25.4281C23.5316 21.0595 26.8699 10.648 22.4892 2.16474L-7.72069 17.7648C-11.9672 9.54131 -8.73102 -0.551004 -0.526046 -4.78551L15.0669 25.4281ZM22.4923 2.17081C23.4952 4.11482 24.0075 6.26529 24.0075 8.40647H-9.99251C-9.99251 11.6466 -9.22662 14.8457 -7.72382 17.7588L22.4923 2.17081ZM24.0075 8.40647C24.0075 15.9184 17.9232 22.0026 10.4113 22.0026V-11.9974C-0.854432 -11.9974 -9.99251 -2.85928 -9.99251 8.40647H24.0075ZM10.4113 22.0026C2.89964 22.0026 -3.18481 15.9186 -3.18481 8.40647H30.8152C30.8152 -2.85953 21.6768 -11.9974 10.4113 -11.9974V22.0026ZM-3.18481 8.40647C-3.18481 3.89643 -0.948318 -0.311322 2.76572 -2.83593L21.8794 25.2829C27.4628 21.4876 30.8152 15.1736 30.8152 8.40647H-3.18481ZM2.76305 -2.83411C-5.12445 2.52959 -7.16273 13.2657 -1.8086 21.1454L26.3137 2.03682C31.5035 9.67474 29.5279 20.0817 21.8821 25.281L2.76305 -2.83411ZM-1.80197 21.1552C1.54535 26.0741 6.99616 28.7069 12.4716 28.7069V-5.29306C17.7776 -5.29306 23.0622 -2.74123 26.307 2.02707L-1.80197 21.1552ZM12.4716 28.7069C15.8244 28.7069 19.2233 27.7268 22.1721 25.7238L3.0681 -2.40152C5.92586 -4.34265 9.22131 -5.29306 12.4716 -5.29306V28.7069ZM22.1774 25.7202C27.9061 21.8259 31.3444 15.3483 31.3444 8.40647H-2.65556C-2.65556 4.07266 -0.50639 0.0284081 3.06277 -2.3979L22.1774 25.7202ZM31.3444 8.40678C31.3447 -3.15118 21.9688 -12.5266 10.4114 -12.5266V21.4734C3.19144 21.4734 -2.65569 15.6267 -2.65556 8.40617L31.3444 8.40678Z" fill="#E8711F" mask="url(#path-1-inside-1_425_3838)"/>
</g>
<path id="Vector_2" d="M11.1765 10.404C11.1765 10.404 11.1765 10.404 11.1766 10.404C11.2086 10.3917 11.2402 10.3787 11.2713 10.365C12.0401 10.0264 12.5498 9.25207 12.5498 8.40643C12.5498 7.83977 12.3282 7.32387 11.9672 6.94083C11.9667 6.94032 11.9662 6.93982 11.9657 6.93931L12.3505 6.57619C12.351 6.57675 12.3515 6.57731 12.3521 6.57786C12.8026 7.05573 13.079 7.69939 13.079 8.40643C13.079 9.09753 12.8061 9.75045 12.3482 10.2373L11.2713 10.6509L11.2712 10.6509L11.2605 10.623L11.2604 10.6226L11.1995 10.4639L11.1992 10.4631L11.1769 10.4051M11.1765 10.404C11.0401 10.4563 10.9719 10.6094 11.0241 10.7458C11.0646 10.8511 11.1649 10.9158 11.2713 10.9158C11.3028 10.9158 11.3348 10.9101 11.366 10.8982L11.2713 10.6514L11.2713 10.6512L11.0243 10.7458L11.2712 10.651L11.1769 10.4051M11.1765 10.404L11.1769 10.4051M11.1765 10.404L11.1769 10.4051M11.2713 10.6512L11.2713 10.6512L11.2713 10.6512ZM11.2713 10.6512L12.3463 10.2394L11.3661 10.8981L11.2713 10.6512ZM8.47139 10.2375C8.47144 10.2375 8.47149 10.2376 8.47154 10.2376C8.57179 10.3438 8.73921 10.3486 8.84541 10.2483C8.95167 10.148 8.95654 9.98071 8.85635 9.87445C8.85628 9.87438 8.85622 9.87431 8.85615 9.87424C8.85614 9.87423 8.85613 9.87422 8.85613 9.87421C8.48005 9.47574 8.27287 8.95446 8.27287 8.40643C8.27287 7.49747 8.84297 6.71914 9.64438 6.4102C9.64458 6.41013 9.64477 6.41005 9.64497 6.40998C9.64502 6.40996 9.64507 6.40994 9.64512 6.40992C9.6452 6.40989 9.64527 6.40986 9.64534 6.40983C9.88326 6.31825 10.1416 6.26803 10.4113 6.26803C10.4114 6.26803 10.4114 6.26803 10.4114 6.26803C10.7171 6.26803 11.0081 6.33253 11.2713 6.44863C11.5341 6.5645 11.7693 6.73177 11.9642 6.93763L12.3487 6.5743C12.0541 6.26297 11.6855 6.02236 11.2713 5.88096C11.0014 5.78879 10.7121 5.73877 10.4114 5.73877C10.4114 5.73877 10.4114 5.73877 10.4113 5.73877C10.0748 5.73877 9.75266 5.80141 9.45589 5.91564C9.45581 5.91567 9.45573 5.9157 9.45565 5.91573C9.45559 5.91575 9.45553 5.91578 9.45547 5.9158C9.45525 5.91588 9.45503 5.91597 9.45482 5.91605C8.45496 6.30139 7.74365 7.2724 7.74365 8.40643C7.74365 8.6831 7.78596 8.95428 7.86743 9.21204C7.86768 9.21282 7.86793 9.21361 7.86818 9.21439C7.98815 9.59275 8.19253 9.94213 8.47134 10.2374C8.47136 10.2374 8.47137 10.2375 8.47139 10.2375Z" fill="#E8711F" stroke="#E8711F" stroke-width="17"/>
<g id="Vector_3">
<mask id="path-4-inside-2_425_3838" fill="white">
<path d="M5.43563 11.3831C5.58176 11.3831 5.70023 11.2645 5.70023 11.1184C5.70023 10.9723 5.58176 10.8538 5.43563 10.8538H4.69523C4.54914 10.8538 4.43066 10.9723 4.43066 11.1184V14.7995C4.43066 14.9456 4.54914 15.0641 4.69523 15.0641H6.4016H11.2113C11.8393 15.0641 12.4602 14.8543 12.9595 14.4732L14.5658 13.2473C15.0132 12.9059 15.1061 12.2593 14.7731 11.8058C14.4396 11.3517 13.7943 11.2472 13.3344 11.5728L12.512 12.1552C12.3928 12.2397 12.3646 12.4049 12.4491 12.5241C12.5336 12.6433 12.6987 12.6715 12.818 12.5871L13.6404 12.0047C13.8661 11.8447 14.183 11.8962 14.3465 12.119C14.51 12.3416 14.4644 12.659 14.2448 12.8266L12.6384 14.0525C12.2307 14.3636 11.724 14.5349 11.2113 14.5349H6.66621V11.383H8.45762C8.76844 11.383 9.06195 11.5026 9.28414 11.7199C9.60598 12.0343 10.0309 12.2074 10.4807 12.2074H10.9933C11.2334 12.2074 11.4286 12.4026 11.4286 12.6425C11.4286 12.9625 11.1683 13.2228 10.8484 13.2228H8.99164C8.84555 13.2228 8.72703 13.3413 8.72703 13.4874C8.72703 13.6335 8.84555 13.752 8.99164 13.752H10.8484C11.4601 13.752 11.9578 13.2543 11.9578 12.6425C11.9578 12.1109 11.5251 11.6782 10.9933 11.6782H10.4807C10.1699 11.6782 9.87637 11.5585 9.65406 11.3413C9.33246 11.0268 8.90754 10.8538 8.45762 10.8538H6.40156C6.25547 10.8538 6.13695 10.9722 6.13695 11.1183V14.5348H4.95984V11.383H5.43563V11.3831Z"/>
</mask>
<path d="M5.43563 11.3831C5.58176 11.3831 5.70023 11.2645 5.70023 11.1184C5.70023 10.9723 5.58176 10.8538 5.43563 10.8538H4.69523C4.54914 10.8538 4.43066 10.9723 4.43066 11.1184V14.7995C4.43066 14.9456 4.54914 15.0641 4.69523 15.0641H6.4016H11.2113C11.8393 15.0641 12.4602 14.8543 12.9595 14.4732L14.5658 13.2473C15.0132 12.9059 15.1061 12.2593 14.7731 11.8058C14.4396 11.3517 13.7943 11.2472 13.3344 11.5728L12.512 12.1552C12.3928 12.2397 12.3646 12.4049 12.4491 12.5241C12.5336 12.6433 12.6987 12.6715 12.818 12.5871L13.6404 12.0047C13.8661 11.8447 14.183 11.8962 14.3465 12.119C14.51 12.3416 14.4644 12.659 14.2448 12.8266L12.6384 14.0525C12.2307 14.3636 11.724 14.5349 11.2113 14.5349H6.66621V11.383H8.45762C8.76844 11.383 9.06195 11.5026 9.28414 11.7199C9.60598 12.0343 10.0309 12.2074 10.4807 12.2074H10.9933C11.2334 12.2074 11.4286 12.4026 11.4286 12.6425C11.4286 12.9625 11.1683 13.2228 10.8484 13.2228H8.99164C8.84555 13.2228 8.72703 13.3413 8.72703 13.4874C8.72703 13.6335 8.84555 13.752 8.99164 13.752H10.8484C11.4601 13.752 11.9578 13.2543 11.9578 12.6425C11.9578 12.1109 11.5251 11.6782 10.9933 11.6782H10.4807C10.1699 11.6782 9.87637 11.5585 9.65406 11.3413C9.33246 11.0268 8.90754 10.8538 8.45762 10.8538H6.40156C6.25547 10.8538 6.13695 10.9722 6.13695 11.1183V14.5348H4.95984V11.383H5.43563V11.3831Z" fill="#E8711F"/>
<path d="M5.43563 11.3831H-11.5644V28.3831H5.43563V11.3831ZM12.9595 14.4732L2.64587 0.959146L2.64529 0.959591L12.9595 14.4732ZM14.5658 13.2473L4.25363 -0.267856L4.25223 -0.26679L14.5658 13.2473ZM14.7731 11.8058L1.07039 21.8674L1.07137 21.8687L14.7731 11.8058ZM13.3344 11.5728L3.5106 -2.30142L3.50888 -2.3002L13.3344 11.5728ZM12.512 12.1552L2.68654 -1.71778L2.68435 -1.71623L12.512 12.1552ZM12.4491 12.5242L-1.42603 22.3467L-1.42161 22.3529L-1.41719 22.3591L12.4491 12.5242ZM12.818 12.5871L22.6396 26.4628L22.6436 26.46L12.818 12.5871ZM13.6404 12.0047L23.466 25.8776L23.4696 25.875L13.6404 12.0047ZM14.3465 12.119L0.641113 22.177L0.646471 22.1843L14.3465 12.119ZM14.2448 12.8266L3.9336 -0.689308L3.93159 -0.687775L14.2448 12.8266ZM12.6384 14.0525L22.9516 27.5668L22.9516 27.5668L12.6384 14.0525ZM6.66621 14.5349H-10.3338V31.5349H6.66621V14.5349ZM6.66621 11.383V-5.61698H-10.3338V11.383H6.66621ZM9.28414 11.7199L-2.6013 23.8746L-2.59489 23.8808L9.28414 11.7199ZM9.65406 11.3413L-2.23166 23.4957L-2.22598 23.5013L9.65406 11.3413ZM6.13695 14.5348V31.5348H23.137V14.5348H6.13695ZM4.95984 14.5348H-12.0402V31.5348H4.95984V14.5348ZM4.95984 11.383V-5.61702H-12.0402V11.383H4.95984ZM5.43563 11.383H22.4356V-5.61702H5.43563V11.383ZM5.43563 28.3831C14.9739 28.3831 22.7002 20.6501 22.7002 11.1184H-11.2998C-11.2998 1.87899 -3.81037 -5.61694 5.43563 -5.61694V28.3831ZM22.7002 11.1184C22.7002 1.58191 14.969 -6.14616 5.43563 -6.14616V27.8538C-3.80552 27.8538 -11.2998 20.3627 -11.2998 11.1184H22.7002ZM5.43563 -6.14616H4.69523V27.8538H5.43563V-6.14616ZM4.69523 -6.14616C-4.83975 -6.14616 -12.5693 1.58352 -12.5693 11.1184H21.4307C21.4307 20.3611 13.938 27.8538 4.69523 27.8538V-6.14616ZM-12.5693 11.1184V14.7995H21.4307V11.1184H-12.5693ZM-12.5693 14.7995C-12.5693 24.3311 -4.84304 32.0641 4.69523 32.0641V-1.93589C13.9413 -1.93589 21.4307 5.56009 21.4307 14.7995H-12.5693ZM4.69523 32.0641H6.4016V-1.93589H4.69523V32.0641ZM6.4016 32.0641H11.2113V-1.93589H6.4016V32.0641ZM11.2113 32.0641C15.5665 32.0641 19.8113 30.6294 23.2736 27.9868L2.64529 0.959591C5.10905 -0.920856 8.11221 -1.93589 11.2113 -1.93589V32.0641ZM23.273 27.9873L24.8794 26.7613L4.25223 -0.26679L2.64587 0.959146L23.273 27.9873ZM24.878 26.7624C32.6925 20.7998 34.294 9.6663 28.4748 1.74284L1.07137 21.8687C-4.08176 14.8522 -2.66621 5.01205 4.25363 -0.267856L24.878 26.7624ZM28.4758 1.74418C22.6514 -6.18795 11.5373 -7.98481 3.5106 -2.30142L23.1582 25.447C16.0512 30.4791 6.22791 28.8913 1.07039 21.8674L28.4758 1.74418ZM3.50888 -2.3002L2.68654 -1.71778L22.3375 26.0282L23.1599 25.4458L3.50888 -2.3002ZM2.68435 -1.71623C-5.09876 3.79798 -6.93042 14.5713 -1.42603 22.3467L26.3242 2.70164C31.6596 10.2384 29.8843 20.6814 22.3397 26.0266L2.68435 -1.71623ZM-1.41719 22.3591C4.09276 30.1276 14.8585 31.9705 22.6396 26.4628L2.99634 -1.2886C10.5389 -6.62742 20.9744 -4.8409 26.3153 2.68916L-1.41719 22.3591ZM22.6436 26.46L23.466 25.8776L3.81473 -1.86824L2.99235 -1.28578L22.6436 26.46ZM23.4696 25.875C16.1191 31.0839 5.96333 29.4293 0.641114 22.177L28.0519 2.06106C22.4026 -5.63682 11.6132 -7.39462 3.81113 -1.86568L23.4696 25.875ZM0.646471 22.1843C-4.67822 14.9368 -3.21584 4.76497 3.9336 -0.689308L24.556 26.3425C32.1447 20.5531 33.6983 9.74653 28.0465 2.05376L0.646471 22.1843ZM3.93159 -0.687775L2.32518 0.538123L22.9516 27.5668L24.558 26.3409L3.93159 -0.687775ZM2.32521 0.538101C4.87946 -1.41111 7.99613 -2.46515 11.2113 -2.46515V31.5349C15.4519 31.5349 19.582 30.1382 22.9516 27.5668L2.32521 0.538101ZM11.2113 -2.46515H6.66621V31.5349H11.2113V-2.46515ZM23.6662 14.5349V11.383H-10.3338V14.5349H23.6662ZM6.66621 28.383H8.45762V-5.61698H6.66621V28.383ZM8.45762 28.383C4.32795 28.383 0.354607 26.765 -2.6013 23.8746L21.1696 -0.434794C17.7693 -3.75975 13.2089 -5.61698 8.45762 -5.61698V28.383ZM-2.59489 23.8808C0.901978 27.2966 5.59005 29.2074 10.4807 29.2074V-4.79261C14.4718 -4.79261 18.31 -3.22811 21.1632 -0.441057L-2.59489 23.8808ZM10.4807 29.2074H10.9933V-4.79261H10.4807V29.2074ZM10.9933 29.2074C1.84647 29.2074 -5.57145 21.7934 -5.57145 12.6425H28.4286C28.4286 3.01179 20.6202 -4.79261 10.9933 -4.79261V29.2074ZM-5.57145 12.6425C-5.57145 3.57587 1.77724 -3.77722 10.8484 -3.77722V30.2228C20.5594 30.2228 28.4286 22.3491 28.4286 12.6425H-5.57145ZM10.8484 -3.77722H8.99164V30.2228H10.8484V-3.77722ZM8.99164 -3.77722C-0.53995 -3.77722 -8.27297 3.94908 -8.27297 13.4874H25.727C25.727 22.7334 18.231 30.2228 8.99164 30.2228V-3.77722ZM-8.27297 13.4874C-8.27297 23.0239 -0.541708 30.752 8.99164 30.752V-3.24804C18.2328 -3.24804 25.727 4.24306 25.727 13.4874H-8.27297ZM8.99164 30.752H10.8484V-3.24804H8.99164V30.752ZM10.8484 30.752C20.8489 30.752 28.9578 22.6431 28.9578 12.6425H-5.04223C-5.04223 3.86543 2.07124 -3.24804 10.8484 -3.24804V30.752ZM28.9578 12.6425C28.9578 2.72157 20.9135 -5.32183 10.9933 -5.32183V28.6782C2.13674 28.6782 -5.04223 21.5002 -5.04223 12.6425H28.9578ZM10.9933 -5.32183H10.4807V28.6782H10.9933V-5.32183ZM10.4807 -5.32183C14.6121 -5.32183 18.5819 -3.70291 21.5341 -0.818617L-2.22598 23.5013C1.17088 26.82 5.72779 28.6782 10.4807 28.6782V-5.32183ZM21.5398 -0.813071C18.0385 -4.23691 13.346 -6.14624 8.45762 -6.14624V27.8538C4.46904 27.8538 0.626374 26.2906 -2.23166 23.4957L21.5398 -0.813071ZM8.45762 -6.14624H6.40156V27.8538H8.45762V-6.14624ZM6.40156 -6.14624C-3.13013 -6.14624 -10.863 1.58015 -10.863 11.1183H23.137C23.137 20.3643 15.6411 27.8538 6.40156 27.8538V-6.14624ZM-10.863 11.1183V14.5348H23.137V11.1183H-10.863ZM6.13695 -2.46519H4.95984V31.5348H6.13695V-2.46519ZM21.9598 14.5348V11.383H-12.0402V14.5348H21.9598ZM4.95984 28.383H5.43563V-5.61702H4.95984V28.383ZM-11.5644 11.383V11.3831H22.4356V11.383H-11.5644Z" fill="#E8711F" mask="url(#path-4-inside-2_425_3838)"/>
</g>
<path id="Vector_4" d="M10.676 9.87252C10.7598 9.85705 10.8391 9.82851 10.9117 9.78911C10.9919 9.74562 11.0638 9.68888 11.1245 9.62186C11.2533 9.47977 11.3319 9.29144 11.3319 9.08494C11.3319 9.08493 11.3319 9.08492 11.3319 9.0849C11.3319 8.78087 11.1618 8.51584 10.9117 8.38C10.8391 8.34057 10.7598 8.31202 10.676 8.29657C10.6287 8.28786 10.5801 8.2833 10.5303 8.2833C10.5303 8.2833 10.5303 8.2833 10.5303 8.2833H10.4894H10.4894H10.4114H10.4113H10.3827H10.3433H10.334H10.3339H10.2931H10.293C10.2393 8.2833 10.1891 8.26765 10.1468 8.24067C10.071 8.19228 10.0206 8.10745 10.0206 8.01103C10.0206 8.01102 10.0206 8.01101 10.0206 8.011C10.0206 7.91457 10.071 7.82972 10.1468 7.78132C10.1757 7.76288 10.2083 7.74974 10.2432 7.74326C10.2559 7.74089 10.269 7.73942 10.2823 7.7389C10.2858 7.73876 10.2894 7.73869 10.293 7.73869H10.2931H10.3339H10.334H10.4113H10.4114H10.4894H10.4894H10.5303H10.5303H10.676H10.9117C11.0579 7.73869 11.1763 7.62018 11.1763 7.47408C11.1763 7.35779 11.1013 7.25897 10.9969 7.2235C10.9702 7.2144 10.9415 7.20947 10.9117 7.20947H10.676V7.04049C10.676 6.93713 10.6167 6.84761 10.5303 6.80406C10.5303 6.80405 10.5303 6.80405 10.5303 6.80404C10.5172 6.79747 10.5036 6.79194 10.4894 6.78758C10.4894 6.78757 10.4894 6.78757 10.4894 6.78757C10.4647 6.77997 10.4385 6.77588 10.4114 6.77588C10.4114 6.77588 10.4114 6.77588 10.4113 6.77588C10.3844 6.77588 10.3584 6.77991 10.334 6.7874C10.3339 6.7874 10.3339 6.7874 10.3339 6.78741C10.3198 6.79174 10.3061 6.79723 10.2931 6.80376C10.293 6.80377 10.293 6.80378 10.293 6.80378C10.2142 6.84328 10.1579 6.92097 10.1483 7.01254C10.1473 7.02173 10.1468 7.03105 10.1468 7.04049V7.20947V7.2235C10.0632 7.239 9.98404 7.2675 9.91161 7.30681C9.83148 7.35031 9.75955 7.40705 9.6988 7.47408C9.57002 7.61617 9.49146 7.80451 9.49146 8.011C9.49146 8.01101 9.49146 8.01102 9.49146 8.01103C9.49146 8.31502 9.66156 8.58003 9.91161 8.71586C9.98403 8.75521 10.0632 8.78371 10.1468 8.79919C10.1942 8.80797 10.2431 8.81256 10.293 8.81256C10.293 8.81256 10.293 8.81256 10.2931 8.81256H10.3339H10.334H10.4113H10.4114H10.4414H10.4804H10.4894H10.4894H10.5303H10.5303C10.5839 8.81256 10.6338 8.82808 10.676 8.85486C10.7521 8.90321 10.8027 8.98826 10.8027 9.0849C10.8027 9.08492 10.8027 9.08493 10.8027 9.08494C10.8027 9.1816 10.7521 9.26663 10.676 9.31496C10.6472 9.33325 10.6148 9.34628 10.58 9.3527C10.5677 9.35498 10.5551 9.35643 10.5423 9.35699C10.5383 9.35716 10.5343 9.35725 10.5303 9.35725H10.5303H10.4894H10.4894H10.4114H10.4113H10.334H10.3339H10.2931H10.293H10.1468H9.91161C9.76552 9.35725 9.647 9.47576 9.647 9.62186C9.647 9.73826 9.7222 9.83712 9.82664 9.87252C9.85331 9.88156 9.88189 9.88646 9.91161 9.88646H10.1468V10.0867V10.0868M10.676 9.87252L10.6759 10.0868M10.676 9.87252H10.6759M10.676 9.87252H10.6759M10.1468 10.0868C10.1468 10.0868 10.1468 10.0869 10.1468 10.0869C10.1468 10.1904 10.2064 10.28 10.293 10.3235C10.293 10.3235 10.293 10.3235 10.2931 10.3235C10.3061 10.33 10.3198 10.3355 10.3339 10.3398C10.3339 10.3398 10.3339 10.3398 10.334 10.3398C10.3584 10.3473 10.3844 10.3513 10.4113 10.3513C10.4114 10.3513 10.4114 10.3513 10.4114 10.3513C10.4385 10.3513 10.4647 10.3472 10.4894 10.3396C10.4894 10.3396 10.4894 10.3396 10.4894 10.3396C10.5036 10.3353 10.5172 10.3297 10.5303 10.3232C10.5303 10.3232 10.5303 10.3231 10.5303 10.3231C10.6167 10.2796 10.6759 10.1902 10.6759 10.0869C10.6759 10.0869 10.6759 10.0868 10.6759 10.0868M10.1468 10.0868H10.293H10.1468ZM10.6759 10.0868L10.5303 10.0869L10.6759 10.0868ZM10.6759 9.87252V9.88646V10.0779V9.87252Z" fill="#E8711F" stroke="#E8711F" stroke-width="17"/>
<g id="Vector_5">
<mask id="path-7-inside-3_425_3838" fill="white">
<path d="M17.1472 16.6051L14.9867 15.1131C14.8664 15.0301 14.7015 15.0601 14.6185 15.1804C14.5355 15.3007 14.5656 15.4655 14.6859 15.5486L16.5311 16.8229L15.1009 17.8107V17.3633C15.1009 17.2172 14.9824 17.0987 14.8363 17.0987H6.52189V16.547H14.8363C14.9824 16.547 15.1009 16.4285 15.1009 16.2824C15.1009 16.1363 14.9824 16.0179 14.8363 16.0179H6.25725C6.11115 16.0179 5.99268 16.1363 5.99268 16.2824V17.3633C5.99268 17.5094 6.11115 17.6279 6.25725 17.6279H14.5717V18.315C14.5717 18.4134 14.6262 18.5036 14.7133 18.5493C14.752 18.5696 14.7942 18.5796 14.8363 18.5796C14.8891 18.5796 14.9416 18.5638 14.9867 18.5327L17.1472 17.0406C17.2187 16.9912 17.2614 16.9097 17.2614 16.8229C17.2614 16.7359 17.2187 16.6545 17.1472 16.6051Z"/>
</mask>
<path d="M17.1472 16.6051L14.9867 15.1131C14.8664 15.0301 14.7015 15.0601 14.6185 15.1804C14.5355 15.3007 14.5656 15.4655 14.6859 15.5486L16.5311 16.8229L15.1009 17.8107V17.3633C15.1009 17.2172 14.9824 17.0987 14.8363 17.0987H6.52189V16.547H14.8363C14.9824 16.547 15.1009 16.4285 15.1009 16.2824C15.1009 16.1363 14.9824 16.0179 14.8363 16.0179H6.25725C6.11115 16.0179 5.99268 16.1363 5.99268 16.2824V17.3633C5.99268 17.5094 6.11115 17.6279 6.25725 17.6279H14.5717V18.315C14.5717 18.4134 14.6262 18.5036 14.7133 18.5493C14.752 18.5696 14.7942 18.5796 14.8363 18.5796C14.8891 18.5796 14.9416 18.5638 14.9867 18.5327L17.1472 17.0406C17.2187 16.9912 17.2614 16.9097 17.2614 16.8229C17.2614 16.7359 17.2187 16.6545 17.1472 16.6051Z" fill="#E8711F"/>
<path d="M17.1472 16.6051L7.48665 30.5935L7.49285 30.5978L17.1472 16.6051ZM14.9867 15.1131L24.6472 1.12469L24.645 1.12321L14.9867 15.1131ZM14.6185 15.1804L28.6077 24.8397L28.6099 24.8366L14.6185 15.1804ZM14.6859 15.5486L5.02136 29.5342L5.02537 29.5369L14.6859 15.5486ZM16.5311 16.8229L26.1923 30.8108L46.4456 16.8222L26.1916 2.83453L16.5311 16.8229ZM15.1009 17.8107H-1.89908V50.2131L24.7621 31.7986L15.1009 17.8107ZM6.52189 17.0987H-10.4781V34.0987H6.52189V17.0987ZM6.52189 16.547V-0.452956H-10.4781V16.547H6.52189ZM14.5717 17.6279H31.5717V0.627904H14.5717V17.6279ZM14.7133 18.5493L22.6128 3.49617L22.6115 3.4955L14.7133 18.5493ZM14.9867 18.5327L24.6367 32.5283L24.6475 32.5209L14.9867 18.5327ZM17.1472 17.0406L7.48768 3.05152L7.48631 3.05247L17.1472 17.0406ZM26.8077 2.61676L24.6472 1.12469L5.32614 29.1014L7.48665 30.5935L26.8077 2.61676ZM24.645 1.12321C16.8094 -4.28636 6.05196 -2.33598 0.627214 5.52417L28.6099 24.8366C23.3511 32.4562 12.9234 34.3465 5.3283 29.1029L24.645 1.12321ZM0.629338 5.52109C-4.78764 13.3663 -2.81994 24.1156 5.02136 29.5342L24.3504 1.56296C31.9512 6.81539 33.8586 17.2351 28.6077 24.8397L0.629338 5.52109ZM5.02537 29.5369L6.87061 30.8113L26.1916 2.83453L24.3464 1.56019L5.02537 29.5369ZM6.8699 2.83501L5.43971 3.82283L24.7621 31.7986L26.1923 30.8108L6.8699 2.83501ZM32.1009 17.8107V17.3633H-1.89908V17.8107H32.1009ZM32.1009 17.3633C32.1009 7.8283 24.3711 0.0987234 14.8363 0.0987234V34.0987C5.59366 34.0987 -1.89908 26.6062 -1.89908 17.3633H32.1009ZM14.8363 0.0987234H6.52189V34.0987H14.8363V0.0987234ZM23.5219 17.0987V16.547H-10.4781V17.0987H23.5219ZM6.52189 33.547H14.8363V-0.452956H6.52189V33.547ZM14.8363 33.547C24.3711 33.547 32.1009 25.8175 32.1009 16.2824H-1.89908C-1.89908 7.03959 5.59366 -0.452956 14.8363 -0.452956V33.547ZM32.1009 16.2824C32.1009 6.74421 24.368 -0.982136 14.8363 -0.982136V33.0179C5.59685 33.0179 -1.89908 25.5285 -1.89908 16.2824H32.1009ZM14.8363 -0.982136H6.25725V33.0179H14.8363V-0.982136ZM6.25725 -0.982136C-3.27774 -0.982136 -11.0073 6.74755 -11.0073 16.2824H22.9927C22.9927 25.5251 15.5 33.0179 6.25725 33.0179V-0.982136ZM-11.0073 16.2824V17.3633H22.9927V16.2824H-11.0073ZM-11.0073 17.3633C-11.0073 26.8982 -3.27775 34.6279 6.25725 34.6279V0.627904C15.5001 0.627904 22.9927 8.12065 22.9927 17.3633H-11.0073ZM6.25725 34.6279H14.5717V0.627904H6.25725V34.6279ZM-2.42834 17.6279V18.315H31.5717V17.6279H-2.42834ZM-2.42834 18.315C-2.42834 24.7323 1.13118 30.621 6.81513 33.6032L22.6115 3.4955C28.1213 6.38626 31.5717 12.0945 31.5717 18.315H-2.42834ZM6.81385 33.6025C9.33863 34.9275 12.0985 35.5796 14.8363 35.5796V1.57962C17.4898 1.57962 20.1653 2.21178 22.6128 3.49617L6.81385 33.6025ZM14.8363 35.5796C18.284 35.5796 21.7115 34.5453 24.6367 32.5283L5.33662 4.53715C8.17174 2.58232 11.4941 1.57962 14.8363 1.57962V35.5796ZM24.6475 32.5209L26.808 31.0287L7.48631 3.05247L5.3258 4.54462L24.6475 32.5209ZM26.8067 31.0297C31.4768 27.805 34.2614 22.4931 34.2614 16.8229H0.261425C0.261425 11.3264 2.96071 6.17741 7.48768 3.05152L26.8067 31.0297ZM34.2614 16.8229C34.2614 11.1537 31.4773 5.83862 26.8015 2.61248L7.49285 30.5978C2.96011 27.4704 0.261425 22.3181 0.261425 16.8229H34.2614Z" fill="#E8711F" mask="url(#path-7-inside-3_425_3838)"/>
</g>
<g id="Vector_6">
<mask id="path-9-inside-4_425_3838" fill="white">
<path d="M5.14227 16.0178H3.96676C3.82066 16.0178 3.70215 16.1363 3.70215 16.2824V17.3633C3.70215 17.5094 3.82066 17.6279 3.96676 17.6279H5.14227C5.28836 17.6279 5.40684 17.5094 5.40684 17.3633V16.2824C5.40684 16.1363 5.28836 16.0178 5.14227 16.0178ZM4.87762 17.0987H4.23137V16.547H4.87762V17.0987Z"/>
</mask>
<path d="M5.14227 16.0178H3.96676C3.82066 16.0178 3.70215 16.1363 3.70215 16.2824V17.3633C3.70215 17.5094 3.82066 17.6279 3.96676 17.6279H5.14227C5.28836 17.6279 5.40684 17.5094 5.40684 17.3633V16.2824C5.40684 16.1363 5.28836 16.0178 5.14227 16.0178ZM4.87762 17.0987H4.23137V16.547H4.87762V17.0987Z" fill="#E8711F"/>
<path d="M5.40684 16.2824H-11.5932H5.40684ZM4.87762 17.0987V34.0987H21.8776V17.0987H4.87762ZM4.23137 17.0987H-12.7686V34.0987H4.23137V17.0987ZM4.23137 16.547V-0.452959H-12.7686V16.547H4.23137ZM4.87762 16.547H21.8776V-0.452959H4.87762V16.547ZM5.14227 -0.982178H3.96676V33.0178H5.14227V-0.982178ZM3.96676 -0.982178C-5.56493 -0.982178 -13.2979 6.74422 -13.2979 16.2824H20.7021C20.7021 25.5284 13.2063 33.0178 3.96676 33.0178V-0.982178ZM-13.2979 16.2824V17.3633H20.7021V16.2824H-13.2979ZM-13.2979 17.3633C-13.2979 26.9015 -5.56493 34.6279 3.96676 34.6279V0.627901C13.2063 0.627901 20.7021 8.11734 20.7021 17.3633H-13.2979ZM3.96676 34.6279H5.14227V0.627901H3.96676V34.6279ZM5.14227 34.6279C14.6772 34.6279 22.4068 26.8983 22.4068 17.3633H-11.5932C-11.5932 8.12058 -4.10048 0.627901 5.14227 0.627901V34.6279ZM22.4068 17.3633V16.2824H-11.5932V17.3633H22.4068ZM22.4068 16.2824C22.4068 6.74746 14.6772 -0.982178 5.14227 -0.982178V33.0178C-4.10048 33.0178 -11.5932 25.5251 -11.5932 16.2824H22.4068ZM4.87762 0.0987215H4.23137V34.0987H4.87762V0.0987215ZM21.2314 17.0987V16.547H-12.7686V17.0987H21.2314ZM4.23137 33.547H4.87762V-0.452959H4.23137V33.547ZM-12.1224 16.547V17.0987H21.8776V16.547H-12.1224Z" fill="#E8711F" mask="url(#path-9-inside-4_425_3838)"/>
</g>
<path id="Vector_7" d="M2.85177 16.0178C2.70567 16.0178 2.58716 16.1363 2.58716 16.2824V17.3633C2.58716 17.5094 2.70567 17.6279 2.85177 17.6279C2.99786 17.6279 3.11638 17.5094 3.11638 17.3633V16.2824C3.11638 16.1363 2.99786 16.0178 2.85177 16.0178Z" fill="#E8711F" stroke="#E8711F" stroke-width="17"/>
<g id="Vector_8">
<mask id="path-12-inside-5_425_3838" fill="white">
<path d="M2.85254 3.39495L5.01305 4.88709C5.05898 4.91877 5.11133 4.93397 5.1632 4.93397C5.24723 4.93397 5.32988 4.89409 5.38117 4.81975C5.46422 4.69948 5.43406 4.53471 5.31383 4.45163L3.46859 3.17717L4.89879 2.18936V2.63674C4.89879 2.78284 5.0173 2.90135 5.1634 2.90135H13.4778V3.45303H5.16344C5.01734 3.45303 4.89883 3.57155 4.89883 3.71764C4.89883 3.86374 5.01734 3.98225 5.16344 3.98225H13.7425C13.8886 3.98225 14.007 3.86374 14.007 3.71764V2.63674C14.007 2.49061 13.8886 2.37213 13.7425 2.37213H5.42805V1.68502C5.42805 1.58667 5.37348 1.49639 5.28637 1.45065C5.19926 1.40502 5.09391 1.41139 5.01305 1.46729L2.85254 2.95948C2.78098 3.00885 2.73828 3.0903 2.73828 3.17721C2.73828 3.26413 2.78098 3.34553 2.85254 3.39495Z"/>
</mask>
<path d="M2.85254 3.39495L5.01305 4.88709C5.05898 4.91877 5.11133 4.93397 5.1632 4.93397C5.24723 4.93397 5.32988 4.89409 5.38117 4.81975C5.46422 4.69948 5.43406 4.53471 5.31383 4.45163L3.46859 3.17717L4.89879 2.18936V2.63674C4.89879 2.78284 5.0173 2.90135 5.1634 2.90135H13.4778V3.45303H5.16344C5.01734 3.45303 4.89883 3.57155 4.89883 3.71764C4.89883 3.86374 5.01734 3.98225 5.16344 3.98225H13.7425C13.8886 3.98225 14.007 3.86374 14.007 3.71764V2.63674C14.007 2.49061 13.8886 2.37213 13.7425 2.37213H5.42805V1.68502C5.42805 1.58667 5.37348 1.49639 5.28637 1.45065C5.19926 1.40502 5.09391 1.41139 5.01305 1.46729L2.85254 2.95948C2.78098 3.00885 2.73828 3.0903 2.73828 3.17721C2.73828 3.26413 2.78098 3.34553 2.85254 3.39495Z" fill="#E8711F"/>
<path d="M2.85254 3.39495L12.5134 -10.5932L12.512 -10.5941L2.85254 3.39495ZM5.01305 4.88709L-4.64782 18.8752L-4.63813 18.8819L5.01305 4.88709ZM5.38117 4.81975L-8.60803 -4.83956L-8.61143 -4.83463L5.38117 4.81975ZM5.31383 4.45163L14.9783 -9.53398L14.9749 -9.53633L5.31383 4.45163ZM3.46859 3.17717L-6.19261 -10.8107L-26.445 3.17728L-6.19251 17.1651L3.46859 3.17717ZM4.89879 2.18936H21.8988V-30.213L-4.76242 -11.7985L4.89879 2.18936ZM13.4778 2.90135H30.4778V-14.0986H13.4778V2.90135ZM13.4778 3.45303V20.453H30.4778V3.45303H13.4778ZM5.42805 2.37213H-11.572V19.3721H5.42805V2.37213ZM5.28637 1.45065L13.1899 -13.6004L13.1819 -13.6046L13.174 -13.6088L5.28637 1.45065ZM5.01305 1.46729L14.6741 15.4553L14.6801 15.4511L5.01305 1.46729ZM2.85254 2.95948L12.5069 16.9521L12.5136 16.9475L2.85254 2.95948ZM-6.80832 17.3831L-4.64781 18.8752L14.6739 -9.10103L12.5134 -10.5932L-6.80832 17.3831ZM-4.63813 18.8819C-1.66812 20.9301 1.77011 21.934 5.1632 21.934V-12.066C8.45254 -12.066 11.7861 -11.0926 14.6642 -9.10771L-4.63813 18.8819ZM5.1632 21.934C10.5836 21.934 16.0088 19.3512 19.3738 14.4741L-8.61143 -4.83463C-5.349 -9.56305 -0.0891521 -12.066 5.1632 -12.066V21.934ZM19.3704 14.4791C24.7878 6.63319 22.819 -4.11584 14.9783 -9.53398L-4.35069 18.4372C-11.9508 13.1853 -13.8594 2.76576 -8.60803 -4.83956L19.3704 14.4791ZM14.9749 -9.53633L13.1297 -10.8108L-6.19251 17.1651L-4.34728 18.4396L14.9749 -9.53633ZM13.1298 17.1651L14.56 16.1773L-4.76242 -11.7985L-6.19261 -10.8107L13.1298 17.1651ZM-12.1012 2.18936V2.63674H21.8988V2.18936H-12.1012ZM-12.1012 2.63674C-12.1012 12.1717 -4.37156 19.9014 5.1634 19.9014V-14.0986C14.4062 -14.0986 21.8988 -6.60598 21.8988 2.63674H-12.1012ZM5.1634 19.9014H13.4778V-14.0986H5.1634V19.9014ZM-3.52219 2.90135V3.45303H30.4778V2.90135H-3.52219ZM13.4778 -13.547H5.16344V20.453H13.4778V-13.547ZM5.16344 -13.547C-4.37147 -13.547 -12.1012 -5.81732 -12.1012 3.71764H21.8988C21.8988 12.9604 14.4062 20.453 5.16344 20.453V-13.547ZM-12.1012 3.71764C-12.1012 13.2526 -4.37151 20.9823 5.16344 20.9823V-13.0177C14.4062 -13.0177 21.8988 -5.52509 21.8988 3.71764H-12.1012ZM5.16344 20.9823H13.7425V-13.0177H5.16344V20.9823ZM13.7425 20.9823C23.2806 20.9823 31.007 13.2493 31.007 3.71764H-2.99297C-2.99297 -5.52185 4.49646 -13.0177 13.7425 -13.0177V20.9823ZM31.007 3.71764V2.63674H-2.99297V3.71764H31.007ZM31.007 2.63674C31.007 -6.89664 23.279 -14.6279 13.7425 -14.6279V19.3721C4.49812 19.3721 -2.99297 11.8779 -2.99297 2.63674H31.007ZM13.7425 -14.6279H5.42805V19.3721H13.7425V-14.6279ZM22.428 2.37213V1.68502H-11.572V2.37213H22.428ZM22.428 1.68502C22.428 -4.73325 18.8681 -10.6187 13.1899 -13.6004L-2.61713 16.5017C-8.12114 13.6115 -11.572 7.90658 -11.572 1.68502H22.428ZM13.174 -13.6088C7.50202 -16.5795 0.634974 -16.1729 -4.65404 -12.5165L14.6801 15.4511C9.55284 18.9956 2.8965 19.3896 -2.60125 16.51L13.174 -13.6088ZM-4.64799 -12.5207L-6.80849 -11.0285L12.5136 16.9475L14.6741 15.4553L-4.64799 -12.5207ZM-6.80178 -11.0332C-11.4787 -7.80631 -14.2617 -2.49061 -14.2617 3.17721H19.7383C19.7383 8.6712 17.0406 13.824 12.5069 16.9521L-6.80178 -11.0332ZM-14.2617 3.17721C-14.2617 8.8489 -11.4758 14.1601 -6.80695 17.384L12.512 -10.5941C17.0378 -7.46907 19.7383 -2.32065 19.7383 3.17721H-14.2617Z" fill="#E8711F" mask="url(#path-12-inside-5_425_3838)"/>
</g>
<g id="Vector_9">
<mask id="path-14-inside-6_425_3838" fill="white">
<path d="M14.8574 3.98219H16.0329C16.179 3.98219 16.2975 3.86367 16.2975 3.71758V2.63668C16.2975 2.49055 16.179 2.37207 16.0329 2.37207H14.8574C14.7113 2.37207 14.5928 2.49059 14.5928 2.63668V3.71758C14.5928 3.86371 14.7113 3.98219 14.8574 3.98219ZM15.122 2.90129H15.7683V3.45297H15.122V2.90129Z"/>
</mask>
<path d="M14.8574 3.98219H16.0329C16.179 3.98219 16.2975 3.86367 16.2975 3.71758V2.63668C16.2975 2.49055 16.179 2.37207 16.0329 2.37207H14.8574C14.7113 2.37207 14.5928 2.49059 14.5928 2.63668V3.71758C14.5928 3.86371 14.7113 3.98219 14.8574 3.98219ZM15.122 2.90129H15.7683V3.45297H15.122V2.90129Z" fill="#E8711F"/>
<path d="M14.5928 3.71758H31.5928H14.5928ZM15.122 2.90129V-14.0987H-1.87797V2.90129H15.122ZM15.7683 2.90129H32.7683V-14.0987H15.7683V2.90129ZM15.7683 3.45297V20.453H32.7683V3.45297H15.7683ZM15.122 3.45297H-1.87797V20.453H15.122V3.45297ZM14.8574 20.9822H16.0329V-13.0178H14.8574V20.9822ZM16.0329 20.9822C25.5678 20.9822 33.2975 13.2526 33.2975 3.71758H-0.702499C-0.702499 -5.52522 6.79019 -13.0178 16.0329 -13.0178V20.9822ZM33.2975 3.71758V2.63668H-0.702499V3.71758H33.2975ZM33.2975 2.63668C33.2975 -6.89999 25.5661 -14.6279 16.0329 -14.6279V19.3721C6.79184 19.3721 -0.702499 11.8811 -0.702499 2.63668H33.2975ZM16.0329 -14.6279H14.8574V19.3721H16.0329V-14.6279ZM14.8574 -14.6279C5.32417 -14.6279 -2.40723 -6.89997 -2.40723 2.63668H31.5928C31.5928 11.8811 24.0984 19.3721 14.8574 19.3721V-14.6279ZM-2.40723 2.63668V3.71758H31.5928V2.63668H-2.40723ZM-2.40723 3.71758C-2.40723 13.2559 5.32579 20.9822 14.8574 20.9822V-13.0178C24.0968 -13.0178 31.5928 -5.52847 31.5928 3.71758H-2.40723ZM15.122 19.9013H15.7683V-14.0987H15.122V19.9013ZM-1.23172 2.90129V3.45297H32.7683V2.90129H-1.23172ZM15.7683 -13.547H15.122V20.453H15.7683V-13.547ZM32.122 3.45297V2.90129H-1.87797V3.45297H32.122Z" fill="#E8711F" mask="url(#path-14-inside-6_425_3838)"/>
</g>
<path id="Vector_10" d="M17.4125 3.71758V2.63668C17.4126 2.49055 17.294 2.37207 17.1479 2.37207C17.0019 2.37207 16.8834 2.49051 16.8833 2.63654C16.8833 2.63659 16.8833 2.63663 16.8833 2.63668V3.71758C16.8833 3.86367 17.0018 3.98219 17.1479 3.98219C17.294 3.98219 17.4125 3.86367 17.4125 3.71758Z" fill="#E8711F" stroke="#E8711F" stroke-width="17"/>
</g>
</g>
</svg>
