<svg width="37" height="37" viewBox="0 0 37 37" fill="none" xmlns="http://www.w3.org/2000/svg">
<g id="call-phone-ui-2-svgrepo-com 1">
<g id="layer1">
<path id="path453461" fill-rule="evenodd" clip-rule="evenodd" d="M20.6453 11.4432C20.3907 11.4566 20.1478 11.5538 19.9542 11.7196C19.7606 11.8854 19.6272 12.1106 19.5748 12.36C19.512 12.6601 19.5709 12.9728 19.7386 13.2294C19.9063 13.4861 20.1691 13.6656 20.4691 13.7286C22.3571 14.1263 23.5452 15.9507 23.1475 17.8387C23.0846 18.1387 23.1436 18.4514 23.3113 18.7081C23.479 18.9647 23.7417 19.1442 24.0418 19.2072C24.3415 19.2701 24.6539 19.2115 24.9105 19.0442C25.1671 18.877 25.3468 18.6148 25.4103 18.3152C26.0657 15.2043 24.0565 12.1212 20.9456 11.4657C20.8469 11.4452 20.7459 11.4376 20.6453 11.4432Z" fill="#E8711F"/>
<path id="path453441" fill-rule="evenodd" clip-rule="evenodd" d="M21.5373 6.92213C21.2946 6.94841 21.0665 7.05083 20.8855 7.21472C20.7046 7.37861 20.5802 7.59556 20.5301 7.83449C20.4673 8.13423 20.5259 8.44666 20.6931 8.70323C20.8603 8.9598 21.1225 9.13955 21.4222 9.20302C25.8096 10.1274 28.5975 14.4043 27.6731 18.7918C27.6417 18.9405 27.6399 19.094 27.6678 19.2434C27.6958 19.3928 27.7529 19.5353 27.836 19.6626C27.9191 19.7899 28.0264 19.8996 28.1519 19.9854C28.2774 20.0712 28.4186 20.1314 28.5674 20.1625C28.8675 20.2254 29.1802 20.1665 29.4368 19.9988C29.6935 19.8311 29.873 19.5683 29.936 19.2683C31.118 13.6579 27.509 8.12222 21.8987 6.9402C21.7799 6.91526 21.658 6.90915 21.5373 6.92213Z" fill="#E8711F"/>
<path id="path453433" fill-rule="evenodd" clip-rule="evenodd" d="M22.4 2.40977C22.1755 2.45222 21.9685 2.56025 21.8053 2.72022C21.6422 2.88019 21.53 3.08492 21.4831 3.30858C21.4203 3.60832 21.4789 3.92074 21.6461 4.17732C21.8133 4.43389 22.0755 4.61364 22.3752 4.67711C29.262 6.12808 33.6497 12.8576 32.1988 19.7445C32.1673 19.8932 32.1655 20.0467 32.1935 20.1961C32.2214 20.3455 32.2786 20.488 32.3616 20.6153C32.4447 20.7427 32.5521 20.8524 32.6776 20.9381C32.8031 21.0239 32.9443 21.0841 33.0931 21.1153C33.3931 21.1781 33.7058 21.1192 33.9625 20.9515C34.2191 20.7838 34.3986 20.521 34.4616 20.221C36.1702 12.1112 30.9614 4.12291 22.8517 2.41429C22.7029 2.38307 22.5494 2.38161 22.4 2.40977Z" fill="#E8711F"/>
<path id="path453419" fill-rule="evenodd" clip-rule="evenodd" d="M8.07111 2.32627C6.93229 2.30569 5.87224 2.82709 5.23694 3.87998C1.43332 10.1837 1.31723 18.0998 5.02692 24.5457C5.02768 24.548 5.02845 24.5503 5.02923 24.5526C8.77173 30.9806 15.7014 34.8336 23.0753 34.6992C24.4805 34.6736 25.5628 33.8211 26.0495 32.5786L27.7116 28.3376C28.3068 26.8183 27.8529 25.075 26.5915 24.04L23.6083 21.5943C22.0733 20.3348 19.7238 20.7566 18.7213 22.4705L17.6034 24.3787C15.7014 23.3855 14.0021 21.968 12.8746 20.0247V20.0224C11.6957 17.9809 11.3357 15.6901 11.4902 13.4508L13.6063 13.5863C15.5826 13.7132 17.2043 11.9174 16.8786 9.96395L16.2462 6.17226C15.9778 4.56317 14.6974 3.30075 13.0846 3.05581L8.56347 2.36928C8.3986 2.34419 8.23379 2.32916 8.07111 2.32627ZM8.21564 4.65458L12.7368 5.34336C13.3696 5.43944 13.86 5.92242 13.9653 6.55381L14.5976 10.3455C14.6871 10.8823 14.2961 11.3131 13.753 11.2782L10.413 11.0636C10.126 11.0454 9.84248 11.1348 9.61783 11.3144C9.39319 11.4939 9.24351 11.7507 9.198 12.0347C8.70722 15.1014 9.23523 18.3448 10.8737 21.1808C10.8737 21.1816 10.8737 21.1824 10.8737 21.1832C12.439 23.882 14.829 25.8977 17.565 27.0412C17.8233 27.1489 18.1119 27.1592 18.3772 27.0704C18.6426 26.9815 18.8667 26.7994 19.0081 26.5579L20.7176 23.6357C21.0241 23.1116 21.6733 22.9954 22.1426 23.3805L25.1235 25.8285C25.6173 26.2336 25.7901 26.8982 25.5571 27.4928L23.8973 31.7339C23.8172 31.9386 23.1831 32.3839 23.0346 32.3866C16.492 32.5059 10.3481 29.0901 7.02777 23.3873C3.74031 17.6697 3.84625 10.6641 7.21747 5.07692C7.29413 4.94984 7.99804 4.62153 8.21564 4.65458Z" fill="#E8711F"/>
</g>
</g>
</svg>
