<svg width="10" height="10" viewBox="0 0 10 10" fill="none" xmlns="http://www.w3.org/2000/svg">
<g id="call-phone-ui-2-svgrepo-com 1" clip-path="url(#clip0_332_1237)">
<g id="layer1">
<path id="path453461" fill-rule="evenodd" clip-rule="evenodd" d="M5.57963 3.09252C5.51084 3.09616 5.44518 3.12242 5.39286 3.16724C5.34054 3.21205 5.30449 3.2729 5.29032 3.34032C5.27335 3.42142 5.28927 3.50593 5.33459 3.57529C5.37992 3.64465 5.45093 3.69318 5.53202 3.71019C6.04229 3.81769 6.36341 4.31077 6.2559 4.82103C6.23892 4.90213 6.25484 4.98665 6.30017 5.05601C6.34549 5.12537 6.41651 5.17389 6.4976 5.1909C6.57861 5.2079 6.66305 5.19205 6.7324 5.14685C6.80174 5.10165 6.85032 5.03079 6.86747 4.94982C7.04462 4.10903 6.50159 3.27576 5.66081 3.09862C5.63413 3.09306 5.60684 3.091 5.57963 3.09252Z" fill="#E8711F"/>
<path id="path453441" fill-rule="evenodd" clip-rule="evenodd" d="M5.82087 1.87068C5.75527 1.87778 5.69361 1.90547 5.64471 1.94976C5.59581 1.99405 5.56218 2.05269 5.54865 2.11726C5.53166 2.19827 5.5475 2.28271 5.5927 2.35206C5.63789 2.4214 5.70876 2.46998 5.78974 2.48714C6.97553 2.73697 7.72902 3.8929 7.47919 5.07869C7.4707 5.11889 7.47021 5.16036 7.47776 5.20075C7.48531 5.24114 7.50076 5.27964 7.52321 5.31406C7.54566 5.34847 7.57468 5.37811 7.6086 5.4013C7.64252 5.42448 7.68068 5.44075 7.72089 5.44917C7.80199 5.46615 7.88651 5.45023 7.95587 5.4049C8.02523 5.35958 8.07375 5.28856 8.09076 5.20747C8.41023 3.69117 7.43484 2.19503 5.91852 1.87556C5.88643 1.86883 5.85347 1.86717 5.82087 1.87068Z" fill="#E8711F"/>
<path id="path453433" fill-rule="evenodd" clip-rule="evenodd" d="M6.05378 0.651191C5.99309 0.662662 5.93716 0.69186 5.89306 0.735095C5.84895 0.778331 5.81865 0.833664 5.80597 0.894111C5.78898 0.975121 5.80482 1.05956 5.85002 1.12891C5.89522 1.19825 5.96609 1.24683 6.04706 1.26398C7.90838 1.65614 9.09424 3.47494 8.70209 5.33625C8.6936 5.37645 8.69311 5.41792 8.70067 5.45831C8.70822 5.4987 8.72366 5.53721 8.74611 5.57162C8.76856 5.60603 8.79758 5.63567 8.8315 5.65886C8.86542 5.68204 8.90358 5.69831 8.94379 5.70673C9.02489 5.72371 9.10941 5.70779 9.17877 5.66246C9.24813 5.61714 9.29665 5.54612 9.31366 5.46503C9.77545 3.2732 8.36768 1.1142 6.17585 0.652412C6.13564 0.643974 6.09415 0.643579 6.05378 0.651191Z" fill="#E8711F"/>
<path id="path453419" fill-rule="evenodd" clip-rule="evenodd" d="M2.18122 0.628576C1.87343 0.623014 1.58693 0.763933 1.41522 1.0485C0.387218 2.75222 0.355843 4.8917 1.35846 6.63382C1.35867 6.63445 1.35888 6.63508 1.35909 6.6357C2.37057 8.37299 4.24345 9.41435 6.2364 9.37801C6.61618 9.37111 6.90869 9.14069 7.04024 8.80489L7.48946 7.65865C7.65032 7.24803 7.52765 6.77689 7.18672 6.49715L6.38045 5.83614C5.9656 5.49574 5.33058 5.60973 5.05965 6.07295L4.75752 6.5887C4.24345 6.32027 3.78418 5.93714 3.47945 5.41195V5.41132C3.16083 4.85954 3.06353 4.24042 3.1053 3.6352L3.6772 3.67182C4.21136 3.70613 4.64966 3.22078 4.56161 2.69281L4.3907 1.66803C4.31817 1.23314 3.97211 0.891949 3.53621 0.825749L2.31429 0.640202C2.26973 0.63342 2.22518 0.629358 2.18122 0.628576ZM2.22028 1.25785L3.4422 1.44401C3.61325 1.46997 3.74578 1.60051 3.77423 1.77115L3.94513 2.79593C3.96932 2.94101 3.86364 3.05744 3.71686 3.04801L2.81415 2.99003C2.73658 2.98511 2.65996 3.00927 2.59925 3.05779C2.53853 3.10632 2.49808 3.17573 2.48578 3.25248C2.35314 4.08131 2.49584 4.9579 2.93866 5.7244C2.93866 5.72461 2.93866 5.72482 2.93866 5.72503C3.36174 6.45446 4.00768 6.99924 4.74713 7.30828C4.81694 7.33739 4.89494 7.34019 4.96665 7.31617C5.03837 7.29215 5.09895 7.24294 5.13715 7.17767L5.59918 6.38787C5.68202 6.24624 5.85747 6.21482 5.98432 6.3189L6.78998 6.98052C6.92343 7.09002 6.97013 7.26962 6.90717 7.43035L6.45856 8.57659C6.4369 8.63191 6.26553 8.75225 6.2254 8.75298C4.45714 8.78523 2.79662 7.86205 1.89923 6.32073C1.01073 4.77546 1.03936 2.88204 1.9505 1.37199C1.97122 1.33765 2.16147 1.24892 2.22028 1.25785Z" fill="#E8711F"/>
</g>
</g>
<defs>
<clipPath id="clip0_332_1237">
<rect width="10" height="10" fill="white"/>
</clipPath>
</defs>
</svg>
