<svg width="26" height="21" viewBox="0 0 26 21" fill="none" xmlns="http://www.w3.org/2000/svg">
<path d="M13.3703 16.7349H12.8936V17.6952H13.3703C13.6722 17.6952 13.9178 17.4796 13.9178 17.2146C13.9178 16.9505 13.6722 16.7349 13.3703 16.7349Z" fill="#E8711F"/>
<path d="M13.2618 14.084C11.3518 14.084 9.8031 15.6319 9.8031 17.5419C9.8031 19.4526 11.3518 20.9998 13.2618 20.9998C15.1717 20.9998 16.7205 19.4525 16.7205 17.5419C16.7204 15.6319 15.1717 14.084 13.2618 14.084ZM13.3704 18.2289H12.8936V18.9281C12.8936 19.0621 12.7843 19.1707 12.6503 19.1707H12.5278C12.3938 19.1707 12.2852 19.0621 12.2852 18.9281V16.4437C12.2852 16.3104 12.3938 16.2019 12.5278 16.2019H13.3704C14.0081 16.2019 14.5271 16.6563 14.5271 17.2146C14.5271 17.7745 14.008 18.2289 13.3704 18.2289Z" fill="#E8711F"/>
<path d="M11.2639 11.2056C11.2639 11.8663 10.0063 12.4008 8.45527 12.4008C6.90347 12.4008 5.64661 11.8663 5.64661 11.2056C5.64661 10.5448 6.90347 10.0088 8.45527 10.0088C10.0063 10.0087 11.2639 10.5448 11.2639 11.2056Z" fill="#E8711F"/>
<path d="M5.64666 13.2295C5.64666 13.8902 6.90351 14.4255 8.45532 14.4255C10.0064 14.4255 11.264 13.8903 11.264 13.2295V12.9322C11.264 12.8413 11.2185 12.7566 11.1415 12.7058C11.0653 12.6549 10.969 12.6457 10.8851 12.6826C10.8851 12.6826 10.0064 13.2248 8.45532 13.2248C6.90351 13.2248 6.02554 12.6826 6.02554 12.6826C5.94081 12.6457 5.84455 12.6549 5.7683 12.7058C5.69205 12.7566 5.64661 12.8413 5.64661 12.9322V13.2295H5.64666Z" fill="#E8711F"/>
<path d="M9.36252 15.2519C9.13377 15.6377 8.96358 16.059 8.85963 16.5041C8.7264 16.5134 8.59239 16.5172 8.45453 16.5172C6.90425 16.5172 5.64661 15.982 5.64661 15.3197V15.0247C5.64661 14.9331 5.69126 14.8468 5.7683 14.7975C5.84376 14.7467 5.94081 14.7375 6.02475 14.7744C6.02475 14.7744 6.90425 15.3166 8.45453 15.3166C8.78954 15.3166 9.09222 15.292 9.36252 15.2519Z" fill="#E8711F"/>
<path d="M8.86269 18.5959C8.7302 18.6052 8.59239 18.6082 8.45453 18.6082C6.90425 18.6082 5.64661 18.0722 5.64661 17.413V17.1157C5.64661 17.0248 5.69126 16.9386 5.7683 16.8877C5.84376 16.8385 5.94081 16.8292 6.02475 16.8646C6.02475 16.8646 6.90425 17.4083 8.45453 17.4083C8.55311 17.4083 8.64784 17.406 8.74104 17.4022C8.73794 17.4484 8.73794 17.4961 8.73794 17.5424C8.73789 17.9043 8.78028 18.257 8.86269 18.5959Z" fill="#E8711F"/>
<path d="M9.87158 20.535C9.45647 20.6397 8.97206 20.6998 8.45453 20.6998C6.90425 20.6998 5.64661 20.1638 5.64661 19.5046V19.2073C5.64661 19.1149 5.69126 19.0294 5.7683 18.9793C5.84376 18.9285 5.94081 18.92 6.02475 18.9562C6.02475 18.9562 6.90425 19.4984 8.45453 19.4984C8.70866 19.4984 8.94741 19.4845 9.16384 19.4599C9.34867 19.8518 9.58664 20.2131 9.87158 20.535Z" fill="#E8711F"/>
<path d="M18.94 6.65716C18.94 7.31793 17.6823 7.8532 16.1313 7.8532C14.5795 7.8532 13.3226 7.31797 13.3226 6.65716C13.3226 5.99635 14.5795 5.46191 16.1313 5.46191C17.6823 5.46191 18.94 5.9964 18.94 6.65716Z" fill="#E8711F"/>
<path d="M13.3226 11.2472C13.3226 11.9064 14.5794 12.4424 16.1312 12.4424C17.6823 12.4424 18.9399 11.9064 18.9399 11.2472V10.9499C18.9399 10.8575 18.8944 10.7728 18.8174 10.722C18.7412 10.6719 18.6449 10.6634 18.561 10.6988C18.561 10.6988 17.6823 11.2418 16.1312 11.2418C14.5794 11.2418 13.7014 10.6988 13.7014 10.6988C13.6167 10.6634 13.5205 10.6719 13.4442 10.722C13.368 10.7728 13.3225 10.8575 13.3225 10.9499V11.2472H13.3226Z" fill="#E8711F"/>
<path d="M13.3226 8.97961C13.3226 9.64037 14.5794 10.1756 16.1312 10.1756C17.6823 10.1756 18.9399 9.64042 18.9399 8.97961V8.68309C18.9399 8.59146 18.8944 8.50673 18.8174 8.45591C18.7412 8.4051 18.6449 8.39662 18.561 8.4328C18.561 8.4328 17.6823 8.97497 16.1312 8.97497C14.5794 8.97497 13.7014 8.4328 13.7014 8.4328C13.6167 8.39662 13.5205 8.40505 13.4442 8.45591C13.368 8.50678 13.3225 8.59146 13.3225 8.68309V8.97961H13.3226Z" fill="#E8711F"/>
<path d="M18.8174 17.5208C18.7411 17.4707 18.6449 17.4622 18.5609 17.4977C18.5609 17.4977 18.2552 17.6848 17.6907 17.8396C17.6614 18.2832 17.5675 18.7084 17.4165 19.1073C18.3207 18.9086 18.9398 18.5081 18.9398 18.0445V17.748C18.9399 17.6563 18.8944 17.5716 18.8174 17.5208Z" fill="#E8711F"/>
<path d="M18.8174 15.2547C18.7412 15.2039 18.6449 15.1954 18.561 15.2316C18.561 15.2316 18.1089 15.5089 17.2856 15.6667C17.4497 16.0179 17.5691 16.3929 17.6368 16.7873C18.4193 16.5747 18.9399 16.2035 18.9399 15.7784V15.4811C18.9399 15.3903 18.8945 15.3055 18.8174 15.2547Z" fill="#E8711F"/>
<path d="M18.8174 12.9884C18.7411 12.9383 18.6449 12.9291 18.5609 12.9653C18.5609 12.9653 17.6822 13.5082 16.1311 13.5082C15.5558 13.5082 15.0738 13.4335 14.6948 13.3396C15.4681 13.6037 16.1465 14.0735 16.6625 14.6865C17.9587 14.5803 18.9398 14.0959 18.9398 13.5128V13.2156C18.9399 13.1247 18.8944 13.0385 18.8174 12.9884Z" fill="#E8711F"/>
<path d="M13.0969 0H12.1388V2.19029H13.0969V0Z" fill="#E8711F"/>
<path d="M7.81916 3.34702L6.98894 3.82605L5.8938 1.92997L6.72402 1.4502L7.81916 3.34702Z" fill="#E8711F"/>
<path d="M3.82752 6.98821L3.34775 7.81843L1.45093 6.72328L1.92991 5.89307L3.82752 6.98821Z" fill="#E8711F"/>
<path d="M23.7848 18.5111L23.3058 19.3413L21.4089 18.2462L21.888 17.416L23.7848 18.5111Z" fill="#E8711F"/>
<path d="M2.19029 12.1372H0V13.0968H2.19029V12.1372Z" fill="#E8711F"/>
<path d="M25.2358 12.1379L25.235 13.0968L23.0448 13.096V12.1372L25.2358 12.1379Z" fill="#E8711F"/>
<path d="M3.34775 17.416L3.82679 18.2462L1.92991 19.3413L1.45093 18.5111L3.34775 17.416Z" fill="#E8711F"/>
<path d="M23.3058 5.89307L23.7841 6.72328L21.8872 7.81843L21.4082 6.98821L23.3058 5.89307Z" fill="#E8711F"/>
<path d="M18.5116 1.4502L19.3411 1.92997L18.246 3.82605L17.4165 3.34702L18.5116 1.4502Z" fill="#E8711F"/>
</svg>
