<svg width="26" height="21" viewBox="0 0 26 21" fill="none" xmlns="http://www.w3.org/2000/svg">
<g id="Group">
<path id="Vector" d="M13.3703 16.7349H12.8936V17.6952H13.3703C13.6722 17.6952 13.9178 17.4796 13.9178 17.2146C13.9178 16.9505 13.6722 16.7349 13.3703 16.7349Z" fill="#E8711F"/>
<path id="Vector_2" d="M13.2619 14.084C11.352 14.084 9.80322 15.6319 9.80322 17.5419C9.80322 19.4526 11.352 20.9998 13.2619 20.9998C15.1718 20.9998 16.7206 19.4525 16.7206 17.5419C16.7205 15.6319 15.1718 14.084 13.2619 14.084ZM13.3705 18.2289H12.8938V18.9281C12.8938 19.0621 12.7844 19.1707 12.6504 19.1707H12.5279C12.3939 19.1707 12.2853 19.0621 12.2853 18.9281V16.4437C12.2853 16.3104 12.3939 16.2019 12.5279 16.2019H13.3705C14.0082 16.2019 14.5272 16.6563 14.5272 17.2146C14.5272 17.7745 14.0081 18.2289 13.3705 18.2289Z" fill="#E8711F"/>
<path id="Vector_3" d="M11.2638 11.2056C11.2638 11.8663 10.0062 12.4008 8.45515 12.4008C6.90334 12.4008 5.64648 11.8663 5.64648 11.2056C5.64648 10.5448 6.90334 10.0088 8.45515 10.0088C10.0062 10.0087 11.2638 10.5448 11.2638 11.2056Z" fill="#E8711F"/>
<path id="Vector_4" d="M5.64653 13.2295C5.64653 13.8902 6.90339 14.4255 8.4552 14.4255C10.0063 14.4255 11.2639 13.8903 11.2639 13.2295V12.9322C11.2639 12.8413 11.2184 12.7566 11.1414 12.7058C11.0652 12.6549 10.9689 12.6457 10.885 12.6826C10.885 12.6826 10.0063 13.2248 8.4552 13.2248C6.90339 13.2248 6.02542 12.6826 6.02542 12.6826C5.94069 12.6457 5.84443 12.6549 5.76818 12.7058C5.69193 12.7566 5.64648 12.8413 5.64648 12.9322V13.2295H5.64653Z" fill="#E8711F"/>
<path id="Vector_5" d="M9.3624 15.2519C9.13365 15.6377 8.96346 16.059 8.85951 16.5041C8.72628 16.5134 8.59227 16.5172 8.45441 16.5172C6.90413 16.5172 5.64648 15.982 5.64648 15.3197V15.0247C5.64648 14.9331 5.69114 14.8468 5.76818 14.7975C5.84364 14.7467 5.94069 14.7375 6.02463 14.7744C6.02463 14.7744 6.90413 15.3166 8.45441 15.3166C8.78942 15.3166 9.0921 15.292 9.3624 15.2519Z" fill="#E8711F"/>
<path id="Vector_6" d="M8.86257 18.5959C8.73008 18.6052 8.59227 18.6082 8.45441 18.6082C6.90413 18.6082 5.64648 18.0722 5.64648 17.413V17.1157C5.64648 17.0248 5.69114 16.9386 5.76818 16.8877C5.84364 16.8385 5.94069 16.8292 6.02463 16.8646C6.02463 16.8646 6.90413 17.4083 8.45441 17.4083C8.55298 17.4083 8.64772 17.406 8.74092 17.4022C8.73782 17.4484 8.73782 17.4961 8.73782 17.5424C8.73777 17.9043 8.78016 18.257 8.86257 18.5959Z" fill="#E8711F"/>
<path id="Vector_7" d="M9.87145 20.535C9.45635 20.6397 8.97194 20.6998 8.45441 20.6998C6.90413 20.6998 5.64648 20.1638 5.64648 19.5046V19.2073C5.64648 19.1149 5.69114 19.0294 5.76818 18.9793C5.84364 18.9285 5.94069 18.92 6.02463 18.9562C6.02463 18.9562 6.90413 19.4984 8.45441 19.4984C8.70854 19.4984 8.94729 19.4845 9.16372 19.4599C9.34855 19.8518 9.58652 20.2131 9.87145 20.535Z" fill="#E8711F"/>
<path id="Vector_8" d="M18.9401 6.65716C18.9401 7.31793 17.6824 7.8532 16.1314 7.8532C14.5796 7.8532 13.3228 7.31797 13.3228 6.65716C13.3228 5.99635 14.5796 5.46191 16.1314 5.46191C17.6824 5.46191 18.9401 5.9964 18.9401 6.65716Z" fill="#E8711F"/>
<path id="Vector_9" d="M13.3223 11.2472C13.3223 11.9064 14.5792 12.4424 16.131 12.4424C17.682 12.4424 18.9396 11.9064 18.9396 11.2472V10.9499C18.9396 10.8575 18.8942 10.7728 18.8172 10.722C18.741 10.6719 18.6447 10.6634 18.5608 10.6988C18.5608 10.6988 17.682 11.2418 16.131 11.2418C14.5792 11.2418 13.7012 10.6988 13.7012 10.6988C13.6165 10.6634 13.5202 10.6719 13.444 10.722C13.3677 10.7728 13.3223 10.8575 13.3223 10.9499V11.2472H13.3223Z" fill="#E8711F"/>
<path id="Vector_10" d="M13.3223 8.97961C13.3223 9.64037 14.5792 10.1756 16.131 10.1756C17.682 10.1756 18.9396 9.64042 18.9396 8.97961V8.68309C18.9396 8.59146 18.8942 8.50673 18.8172 8.45591C18.741 8.4051 18.6447 8.39662 18.5608 8.4328C18.5608 8.4328 17.682 8.97497 16.131 8.97497C14.5792 8.97497 13.7012 8.4328 13.7012 8.4328C13.6165 8.39662 13.5202 8.40505 13.444 8.45591C13.3677 8.50678 13.3223 8.59146 13.3223 8.68309V8.97961H13.3223Z" fill="#E8711F"/>
<path id="Vector_11" d="M18.8174 17.5208C18.7411 17.4707 18.6449 17.4622 18.5609 17.4977C18.5609 17.4977 18.2552 17.6848 17.6907 17.8396C17.6614 18.2832 17.5675 18.7084 17.4165 19.1073C18.3207 18.9086 18.9398 18.5081 18.9398 18.0445V17.748C18.9399 17.6563 18.8944 17.5716 18.8174 17.5208Z" fill="#E8711F"/>
<path id="Vector_12" d="M18.8174 15.2547C18.7412 15.2039 18.6449 15.1954 18.561 15.2316C18.561 15.2316 18.1089 15.5089 17.2856 15.6667C17.4497 16.0179 17.5691 16.3929 17.6368 16.7873C18.4193 16.5747 18.9399 16.2035 18.9399 15.7784V15.4811C18.9399 15.3903 18.8945 15.3055 18.8174 15.2547Z" fill="#E8711F"/>
<path id="Vector_13" d="M18.8174 12.9884C18.7411 12.9383 18.6449 12.9291 18.5609 12.9653C18.5609 12.9653 17.6822 13.5082 16.1311 13.5082C15.5558 13.5082 15.0738 13.4335 14.6948 13.3396C15.4681 13.6037 16.1465 14.0735 16.6625 14.6865C17.9587 14.5803 18.9398 14.0959 18.9398 13.5128V13.2156C18.9399 13.1247 18.8944 13.0385 18.8174 12.9884Z" fill="#E8711F"/>
<path id="Vector_14" d="M13.0967 0H12.1387V2.19029H13.0967V0Z" fill="#E8711F"/>
<path id="Vector_15" d="M7.81892 3.34702L6.9887 3.82605L5.89355 1.92997L6.72377 1.4502L7.81892 3.34702Z" fill="#E8711F"/>
<path id="Vector_16" d="M3.82777 6.98821L3.34799 7.81843L1.45117 6.72328L1.93016 5.89307L3.82777 6.98821Z" fill="#E8711F"/>
<path id="Vector_17" d="M23.7846 18.5111L23.3056 19.3413L21.4087 18.2462L21.8877 17.416L23.7846 18.5111Z" fill="#E8711F"/>
<path id="Vector_18" d="M2.19029 12.1372H0V13.0968H2.19029V12.1372Z" fill="#E8711F"/>
<path id="Vector_19" d="M25.2359 12.1379L25.2352 13.0968L23.0449 13.096V12.1372L25.2359 12.1379Z" fill="#E8711F"/>
<path id="Vector_20" d="M3.34799 17.416L3.82703 18.2462L1.93016 19.3413L1.45117 18.5111L3.34799 17.416Z" fill="#E8711F"/>
<path id="Vector_21" d="M23.3058 5.89307L23.7841 6.72328L21.8872 7.81843L21.4082 6.98821L23.3058 5.89307Z" fill="#E8711F"/>
<path id="Vector_22" d="M18.5116 1.4502L19.3411 1.92997L18.246 3.82605L17.4165 3.34702L18.5116 1.4502Z" fill="#E8711F"/>
</g>
</svg>
