<svg width="16" height="16" viewBox="0 0 16 16" fill="none" xmlns="http://www.w3.org/2000/svg">
<g id="edit-svgrepo-com 2">
<path id="Vector" fill-rule="evenodd" clip-rule="evenodd" d="M14.081 1.80478C13.3 1.02374 12.0337 1.02373 11.2526 1.80478L10.1328 2.92465L4.86209 8.19528C4.77665 8.28075 4.71604 8.38781 4.68674 8.50501L4.02007 11.1717C3.96327 11.3989 4.02984 11.6392 4.19542 11.8047C4.36101 11.9703 4.60134 12.0369 4.82852 11.9801L7.49516 11.3135C7.61243 11.2841 7.71943 11.2235 7.8049 11.1381L13.0372 5.90579L14.1954 4.74759C14.9765 3.96654 14.9765 2.70021 14.1954 1.91916L14.081 1.80478ZM12.1954 2.74759C12.4558 2.48724 12.8779 2.48724 13.1382 2.74759L13.2526 2.86197C13.513 3.12232 13.513 3.54443 13.2526 3.80478L12.575 4.48246L11.538 3.405L12.1954 2.74759ZM10.595 4.34798L11.632 5.42544L6.9927 10.0647L5.58308 10.4171L5.93547 9.00755L10.595 4.34798ZM2.66683 5.33337C2.66683 4.96519 2.96531 4.66671 3.3335 4.66671H6.66683C7.03503 4.66671 7.3335 4.36823 7.3335 4.00004C7.3335 3.63185 7.03503 3.33337 6.66683 3.33337H3.3335C2.22893 3.33337 1.3335 4.22881 1.3335 5.33337V12.6667C1.3335 13.7713 2.22893 14.6667 3.3335 14.6667H10.6668C11.7714 14.6667 12.6668 13.7713 12.6668 12.6667V9.33335C12.6668 8.96521 12.3684 8.66668 12.0002 8.66668C11.632 8.66668 11.3335 8.96521 11.3335 9.33335V12.6667C11.3335 13.0349 11.035 13.3333 10.6668 13.3333H3.3335C2.96531 13.3333 2.66683 13.0349 2.66683 12.6667V5.33337Z" fill="#E8711F"/>
</g>
</svg>
