<svg width="37" height="37" viewBox="0 0 37 37" fill="none" xmlns="http://www.w3.org/2000/svg">
<g clip-path="url(#clip0_332_1736)">
<path d="M27.2459 8.64268C24.3303 7.27129 21.4161 5.89715 18.5031 4.52026L0.212769 13.1413L3.34235 14.6521L3.08335 14.6937V30.8334H4.62502V15.9933L5.73502 15.8022L6.16669 16.0103V24.1626C6.16669 25.5717 14.1926 29.6093 15.8006 30.4048C16.6365 30.8152 17.5566 31.0252 18.4878 31.0182C19.419 31.0113 20.3358 30.7875 21.1656 30.3648C30.8334 25.416 30.8334 24.5049 30.8334 24.1626V16.0103L36.7749 13.1474C36.7749 13.1474 30.9166 10.3709 27.2459 8.64268ZM29.2917 23.9021C26.4611 25.7861 23.5125 27.4865 20.4641 28.9927C19.8486 29.3068 19.1684 29.4731 18.4775 29.4785C17.7865 29.4838 17.1038 29.328 16.4835 29.0235C13.4241 27.5679 10.4892 25.8638 7.70835 23.9283V16.7518L18.5 21.9519L29.2917 16.7518V23.9021ZM18.5 20.2437L8.34968 15.352L18.3227 13.6331L18.0606 12.1114L5.95856 14.1988L3.7956 13.1567L18.4985 6.22689C19.7704 6.83276 31.6381 12.4151 33.2091 13.1551L18.5 20.2437Z" fill="#5C4799"/>
</g>
<defs>
<clipPath id="clip0_332_1736">
<rect width="37" height="37" fill="white"/>
</clipPath>
</defs>
</svg>
