<svg width="32" height="32" viewBox="0 0 32 32" fill="none" xmlns="http://www.w3.org/2000/svg">
<g id="filter-edit-svgrepo-com 4">
<path id="Vector" fill-rule="evenodd" clip-rule="evenodd" d="M13.2094 5.33314C13.2507 5.33322 13.2921 5.33329 13.3335 5.33329C13.375 5.33329 13.4163 5.33322 13.4576 5.33314C13.9492 5.33233 14.4324 5.33153 14.8628 5.44686C16.0132 5.75509 16.9116 6.65358 17.2199 7.80389C17.3352 8.23434 17.3344 8.71756 17.3336 9.20918C17.3336 9.2505 17.3335 9.29188 17.3335 9.33329H28.0002C28.7366 9.33329 29.3335 9.93024 29.3335 10.6666C29.3335 11.403 28.7366 12 28.0002 12H17.3335C17.3335 12.0414 17.3336 12.0827 17.3336 12.1241C17.3344 12.6157 17.3352 13.0989 17.2199 13.5294C16.9116 14.6797 16.0132 15.5782 14.8628 15.8863C14.4324 16.0017 13.9492 16.0009 13.4576 16.0001C13.4163 16.0001 13.375 15.9999 13.3335 15.9999C13.2921 15.9999 13.2507 16.0001 13.2094 16.0001C12.7178 16.0009 12.2345 16.0017 11.8041 15.8863C10.6538 15.5782 9.7553 14.6797 9.44708 13.5294C9.33174 13.0989 9.33254 12.6157 9.33336 12.124C9.33343 12.0827 9.3335 12.0414 9.3335 12H6.66683C5.93046 12 5.3335 11.403 5.3335 10.6666C5.3335 9.93024 5.93046 9.33329 6.66683 9.33329H9.3335C9.3335 9.29188 9.33343 9.2505 9.33336 9.20918C9.33254 8.71756 9.33174 8.23434 9.44708 7.80389C9.7553 6.65358 10.6538 5.75509 11.8041 5.44686C12.2345 5.33153 12.7178 5.33233 13.2094 5.33314ZM12.665 8.00709C12.5228 8.01357 12.4893 8.02401 12.4943 8.02266C12.2642 8.08432 12.0845 8.26401 12.0229 8.49408C12.0218 8.49876 12.013 8.53972 12.0073 8.66476C12.0005 8.81413 12.0002 9.01121 12.0002 9.33329V12C12.0002 12.322 12.0005 12.5191 12.0073 12.6685C12.0138 12.8107 12.0242 12.8441 12.0229 12.8392C12.0845 13.0692 12.2642 13.2489 12.4943 13.3106C12.4893 13.3092 12.5228 13.3197 12.665 13.3262C12.8143 13.333 13.0114 13.3333 13.3335 13.3333C13.6556 13.3333 13.8527 13.333 14.002 13.3262C14.1442 13.3197 14.1776 13.3092 14.1727 13.3106C14.4028 13.2489 14.5824 13.0692 14.6442 12.8392C14.6428 12.8441 14.6532 12.8107 14.6596 12.6685C14.6666 12.5191 14.6668 12.322 14.6668 12V9.33329C14.6668 9.01121 14.6666 8.81413 14.6596 8.66476C14.6532 8.52256 14.6428 8.48909 14.6442 8.49408M12.665 8.00709C12.8143 8.00028 13.0114 7.99996 13.3335 7.99996L12.665 8.00709ZM13.3335 7.99996C13.6556 7.99996 13.8527 8.00028 14.002 8.00709L13.3335 7.99996ZM14.002 8.00709C14.1271 8.01278 14.168 8.02154 14.1727 8.02266L14.002 8.00709ZM21.2094 15.9998C21.2507 15.9999 21.292 15.9999 21.3335 15.9999C21.375 15.9999 21.4163 15.9999 21.4576 15.9998C21.9492 15.999 22.4324 15.9982 22.8628 16.1135C24.0132 16.4218 24.9116 17.3202 25.2199 18.4706C25.3352 18.901 25.3344 19.3842 25.3336 19.8758C25.3336 19.9171 25.3335 19.9585 25.3335 19.9999H28.0002C28.7366 19.9999 29.3335 20.5969 29.3335 21.3333C29.3335 22.0697 28.7366 22.6666 28.0002 22.6666H25.3335C25.3335 22.7081 25.3336 22.7494 25.3336 22.7907C25.3344 23.2823 25.3352 23.7655 25.2199 24.1961C24.9116 25.3463 24.0132 26.2449 22.8628 26.553C22.4324 26.6683 21.9492 26.6675 21.4576 26.6667C21.4163 26.6667 21.375 26.6666 21.3335 26.6666C21.292 26.6666 21.2507 26.6667 21.2094 26.6667C20.7178 26.6675 20.2346 26.6683 19.8042 26.553C18.6538 26.2449 17.7554 25.3463 17.4471 24.1961C17.3318 23.7655 17.3326 23.2823 17.3334 22.7907C17.3334 22.7494 17.3335 22.7081 17.3335 22.6666H6.66683C5.93046 22.6666 5.3335 22.0697 5.3335 21.3333C5.3335 20.5969 5.93046 19.9999 6.66683 19.9999H17.3335C17.3335 19.9586 17.3334 19.9171 17.3334 19.8758C17.3326 19.3842 17.3318 18.901 17.4471 18.4706C17.7554 17.3202 18.6538 16.4218 19.8042 16.1135C20.2346 15.9982 20.7178 15.999 21.2094 15.9998ZM20.665 18.6738C20.5228 18.6802 20.4894 18.6906 20.4943 18.6893C20.2642 18.751 20.0846 18.9307 20.0228 19.1607C20.0242 19.1558 20.0138 19.1893 20.0074 19.3314C20.0004 19.4807 20.0002 19.6779 20.0002 19.9999V22.6666C20.0002 22.9887 20.0004 23.1858 20.0074 23.3351C20.0138 23.4774 20.0242 23.5109 20.0228 23.5058C20.0846 23.7359 20.2642 23.9155 20.4943 23.9773C20.4894 23.9759 20.5228 23.9863 20.665 23.9929C20.8143 23.9997 21.0114 23.9999 21.3335 23.9999C21.6556 23.9999 21.8527 23.9997 22.002 23.9929C22.1442 23.9863 22.1776 23.9759 22.1727 23.9773C22.4028 23.9155 22.5824 23.7359 22.6442 23.5058C22.6428 23.5109 22.6532 23.4774 22.6596 23.3351C22.6666 23.1858 22.6668 22.9887 22.6668 22.6666V19.9999C22.6668 19.6779 22.6666 19.4807 22.6596 19.3314C22.6532 19.1893 22.6428 19.1558 22.6442 19.1607C22.5824 18.9307 22.4028 18.751 22.1727 18.6893C22.1776 18.6906 22.1442 18.6802 22.002 18.6738C21.8527 18.6669 21.6556 18.6666 21.3335 18.6666C21.0114 18.6666 20.8143 18.6669 20.665 18.6738Z" fill="#5B4899"/>
</g>
</svg>
