<svg width="37" height="37" viewBox="0 0 37 37" fill="none" xmlns="http://www.w3.org/2000/svg">
<path fill-rule="evenodd" clip-rule="evenodd" d="M29.4958 21.5833C27.6499 24.597 24.9163 27.8473 21.2951 31.3344L20.2147 32.3573C20.0305 32.5289 19.8441 32.701 19.6557 32.8737L18.5 33.9167C17.9096 33.3918 17.338 32.872 16.7852 32.3573L15.7049 31.3344C12.0837 27.8473 9.3501 24.597 7.50416 21.5833L11.1931 21.5833C12.8289 23.9003 15.0468 26.421 17.8603 29.1292L18.5 29.7372L18.6072 29.6373C21.6747 26.7357 24.0693 24.0445 25.8068 21.5833L29.4958 21.5833ZM13.875 8.88606L18.5 18.1346L20.8125 13.5111L22.5361 16.9583H33.9166V20.0417H20.9944L18.5 25.0306L13.875 15.7805L11.7444 20.0417H3.08331V16.9583H9.83735L13.875 8.88606ZM24.05 4.625C28.6477 4.625 32.375 8.35229 32.375 12.95C32.375 13.7485 32.286 14.5707 32.1079 15.4166L28.9395 15.4166C29.1441 14.6613 29.2592 13.9404 29.2857 13.2551L29.2916 12.95C29.2916 10.0551 26.9448 7.70833 24.05 7.70833C22.8589 7.70833 21.7369 8.1037 20.8261 8.81799L20.5593 9.04177L18.5024 10.8856L16.4444 9.04299C15.4885 8.18711 14.2606 7.70833 12.95 7.70833C10.0551 7.70833 7.70831 10.0551 7.70831 12.95C7.70831 13.7256 7.82527 14.5483 8.06044 15.4166L4.89201 15.4166C4.71399 14.5707 4.62498 13.7485 4.62498 12.95C4.62498 8.35223 8.35221 4.625 12.95 4.625C15.0827 4.625 17.0282 5.42701 18.5012 6.74588C19.973 5.4265 21.9179 4.625 24.05 4.625Z" fill="#5C4799"/>
</svg>
