<svg width="16" height="16" viewBox="0 0 16 16" fill="none" xmlns="http://www.w3.org/2000/svg">
<g clip-path="url(#clip0_332_1767)">
<path d="M9.5085 15.9959C4.9645 15.9959 4.9295 15.8074 4.3665 15.3839C4.068 15.1594 3.505 15.0039 1.4475 14.8699C1.2985 14.8599 1.156 14.8029 1.061 14.6874C1.0175 14.6339 -0.010498 13.1349 -0.010498 10.7339C-0.010498 8.36791 0.725502 7.28891 0.756502 7.23891C0.847502 7.09241 1.008 7.00391 1.18 7.00391C2.869 7.00391 5.211 4.84741 6.785 1.08341C7.057 0.432406 7.1135 0.00390625 8.1135 0.00390625C8.682 0.00390625 9.32 0.411406 9.6345 0.933906C10.28 2.00141 9.9525 4.29441 9.649 5.51941C10.6805 5.51091 12.547 5.49691 13.435 5.49691C14.6705 5.49691 15.4885 6.23341 15.513 7.31041C15.5215 7.66591 15.4745 8.11991 15.372 8.35491C15.644 8.62641 15.9945 9.03491 16.01 9.56191C16.029 10.2419 15.584 10.7594 15.2995 11.0564C15.365 11.2539 15.495 11.5164 15.4825 11.8299C15.451 12.6009 14.856 13.0974 14.4855 13.3569C14.516 13.5679 14.5405 13.9659 14.4725 14.2739C14.205 15.5024 12.404 15.9954 9.5085 15.9954V15.9959ZM1.713 13.8559C3.505 14.0044 4.463 14.2049 4.968 14.5854C5.359 14.8799 5.299 14.9964 9.5085 14.9964C10.7925 14.9964 13.3035 14.9429 13.4965 14.0614C13.573 13.7089 13.2015 13.3624 13.2 13.3599C13.0985 13.1094 13.2115 12.8154 13.459 12.7074C13.463 12.7054 14.4615 12.3479 14.484 11.7899C14.499 11.4334 14.254 11.2189 14.2485 11.2099C14.103 10.9839 14.156 10.6739 14.377 10.5199C14.3795 10.5179 15.0265 10.1259 15.0105 9.59141C14.9985 9.16691 14.439 8.86791 14.422 8.85841C14.297 8.78691 14.206 8.66341 14.1775 8.52141C14.1495 8.38041 14.181 8.23191 14.269 8.11741C14.269 8.11741 14.5235 7.71341 14.514 7.33441C14.4955 6.52291 13.623 6.49741 13.436 6.49741C12.1745 6.49741 8.9355 6.50991 8.9355 6.50991C8.761 6.51091 8.6095 6.42791 8.5155 6.28841C8.4215 6.14891 8.415 5.97491 8.4695 5.81641C8.958 4.40991 9.231 2.20241 8.7775 1.44841C8.644 1.22591 8.6135 1.00391 8.1135 1.00391C8.044 1.00391 7.8795 1.05891 7.7075 1.46841C6.037 5.46591 3.5415 7.77841 1.497 7.98691C1.3205 8.38891 0.989002 9.22191 0.989002 10.7334C0.989002 12.2759 1.4775 13.4699 1.7125 13.8559H1.713Z" fill="#5B4899"/>
</g>
<defs>
<clipPath id="clip0_332_1767">
<rect width="16" height="16" fill="white"/>
</clipPath>
</defs>
</svg>
