<svg width="14" height="14" viewBox="0 0 14 14" fill="none" xmlns="http://www.w3.org/2000/svg">
<g id="logout-svgrepo-com 1">
<path id="Vector" d="M11.867 10.0078H10.9059C10.8402 10.0078 10.7787 10.0365 10.7377 10.0871C10.642 10.2033 10.5395 10.3155 10.4315 10.4221C9.98971 10.8643 9.46646 11.2167 8.89064 11.4598C8.29407 11.7118 7.65288 11.841 7.00529 11.8399C6.3504 11.8399 5.71603 11.7113 5.11993 11.4598C4.54411 11.2167 4.02086 10.8643 3.57911 10.4221C3.13658 9.9814 2.78371 9.45906 2.54005 8.88401C2.28712 8.28791 2.15997 7.6549 2.15997 7.00002C2.15997 6.34514 2.28849 5.71213 2.54005 5.11604C2.78341 4.54045 3.13341 4.02229 3.57911 3.57795C4.02482 3.13361 4.54298 2.78361 5.11993 2.54026C5.71603 2.28869 6.3504 2.16018 7.00529 2.16018C7.66017 2.16018 8.29454 2.28733 8.89064 2.54026C9.46759 2.78361 9.98575 3.13361 10.4315 3.57795C10.5395 3.68596 10.6406 3.79807 10.7377 3.91291C10.7787 3.9635 10.8416 3.99221 10.9059 3.99221H11.867C11.9531 3.99221 12.0065 3.89651 11.9586 3.82404C10.91 2.19436 9.07521 1.11565 6.99025 1.12111C3.71446 1.12932 1.0881 3.7885 1.12091 7.06018C1.15372 10.2799 3.77599 12.8789 7.00529 12.8789C9.08478 12.8789 10.9113 11.8016 11.9586 10.176C12.0051 10.1035 11.9531 10.0078 11.867 10.0078ZM13.0824 6.91389L11.1424 5.38264C11.0699 5.32522 10.9647 5.37717 10.9647 5.46877V6.50783H6.67169C6.61154 6.50783 6.56232 6.55705 6.56232 6.61721V7.38283C6.56232 7.44299 6.61154 7.49221 6.67169 7.49221H10.9647V8.53127C10.9647 8.62287 11.0713 8.67483 11.1424 8.6174L13.0824 7.08615C13.0955 7.07592 13.1061 7.06285 13.1133 7.04793C13.1206 7.033 13.1244 7.01662 13.1244 7.00002C13.1244 6.98342 13.1206 6.96704 13.1133 6.95211C13.1061 6.93719 13.0955 6.92412 13.0824 6.91389Z" fill="#E8711F"/>
</g>
</svg>
