<svg width="20" height="20" viewBox="0 0 20 20" fill="none" xmlns="http://www.w3.org/2000/svg">
<path d="M3.33341 17.5001H11.3501C11.831 17.5003 12.3062 17.3964 12.7431 17.1954C13.18 16.9945 13.5682 16.7012 13.8809 16.3359L18.1326 11.3759C18.2216 11.2722 18.2838 11.1483 18.3136 11.0149C18.3434 10.8815 18.34 10.7429 18.3036 10.6111C18.2672 10.4794 18.199 10.3587 18.1049 10.2595C18.0109 10.1604 17.8939 10.0859 17.7642 10.0426L16.1242 9.49592C15.7279 9.36708 15.3059 9.33793 14.8955 9.41104C14.4852 9.48415 14.0992 9.65727 13.7717 9.91509L11.1176 12.0376L10.6034 11.0084C10.328 10.4537 9.90266 9.9871 9.37569 9.66161C8.84872 9.33612 8.24113 9.1647 7.62175 9.16676H3.33341C2.41425 9.16676 1.66675 9.91426 1.66675 10.8334V15.8334C1.66675 16.7526 2.41425 17.5001 3.33341 17.5001ZM3.33341 10.8334H7.62175C8.25758 10.8334 8.82841 11.1859 9.11258 11.7543L9.48508 12.5001H5.83341V14.1668H10.8451C10.9733 14.1651 11.0994 14.1337 11.2134 14.0751L11.2159 14.0743L11.2192 14.0726H11.2217L11.2234 14.0718H11.2267L11.2276 14.0709C11.2351 14.0734 11.2301 14.0701 11.2301 14.0701C11.2384 14.0701 11.2317 14.0693 11.2317 14.0693H11.2326L11.2342 14.0684L11.2367 14.0676L11.2384 14.0668L11.2401 14.0659L11.2426 14.0651L11.2442 14.0643C11.2467 14.0643 11.2451 14.0634 11.2459 14.0634L11.2484 14.0618L11.2501 14.0609L11.2517 14.0601L11.2542 14.0593L11.2559 14.0584H11.2567L11.2584 14.0576L11.2609 14.0568L11.2626 14.0559C11.2701 14.0551 11.2651 14.0551 11.2651 14.0551L11.2667 14.0543C11.2989 14.0349 11.3295 14.0131 11.3584 13.9893L14.8134 11.2251C15.0317 11.0518 15.3326 10.9976 15.5967 11.0859L16.0609 11.2409L12.6167 15.2601C12.4583 15.44 12.2635 15.5841 12.0451 15.683C11.8267 15.7818 11.5898 15.8331 11.3501 15.8334H3.33341V10.8334ZM13.3334 1.66676H13.3192C13.1834 1.66842 12.4809 1.69926 11.6667 2.25426C10.8742 1.71426 10.1884 1.67092 10.0267 1.66759L10.0017 1.66676H9.99841C9.33091 1.66676 8.70258 1.92759 8.23258 2.39842C7.76091 2.87092 7.50008 3.49842 7.50008 4.16676C7.50008 4.83509 7.76091 5.46259 8.21758 5.92009L11.0626 8.90842C11.1409 8.98968 11.2347 9.0543 11.3386 9.09841C11.4424 9.14253 11.5541 9.16522 11.6669 9.16515C11.7797 9.16507 11.8914 9.14222 11.9952 9.09796C12.099 9.0537 12.1928 8.98895 12.2709 8.90759L15.1009 5.93426C15.5734 5.46259 15.8334 4.83509 15.8334 4.16676C15.8334 3.49842 15.5726 2.87092 15.1017 2.39926C14.8704 2.16638 14.5951 1.98172 14.2918 1.85599C13.9886 1.73025 13.6634 1.66593 13.3351 1.66676H13.3334ZM14.1667 4.16676C14.1667 4.38926 14.0801 4.59842 13.9076 4.77092L11.6667 7.12509L9.41091 4.75592C9.25341 4.59842 9.16675 4.38926 9.16675 4.16676C9.16675 3.94426 9.25341 3.73509 9.41175 3.57676C9.56244 3.42347 9.76764 3.336 9.98258 3.33342C10.0034 3.33426 10.4009 3.36009 10.8717 3.73759C10.9392 3.79176 11.0076 3.85342 11.0776 3.92259L11.6667 4.51176L12.2559 3.92259C12.3259 3.85342 12.3942 3.79176 12.4617 3.73759C12.9026 3.38342 13.2751 3.33926 13.3384 3.33426C13.447 3.33424 13.5546 3.35573 13.6548 3.39749C13.7551 3.43926 13.8461 3.50047 13.9226 3.57759C14.0801 3.73509 14.1667 3.94426 14.1667 4.16676Z" fill="#E8711F"/>
</svg>
