<svg width="20" height="20" viewBox="0 0 20 20" fill="none" xmlns="http://www.w3.org/2000/svg">
<path d="M3.33329 17.5001H11.35C11.8309 17.5003 12.3061 17.3964 12.743 17.1954C13.1799 16.9945 13.5681 16.7012 13.8808 16.3359L18.1325 11.3759C18.2215 11.2722 18.2837 11.1483 18.3135 11.0149C18.3433 10.8815 18.3399 10.7429 18.3035 10.6111C18.2671 10.4794 18.1989 10.3587 18.1048 10.2595C18.0107 10.1604 17.8938 10.0859 17.7641 10.0426L16.1241 9.49592C15.7278 9.36708 15.3057 9.33793 14.8954 9.41104C14.4851 9.48415 14.0991 9.65727 13.7716 9.91509L11.1175 12.0376L10.6033 11.0084C10.3278 10.4537 9.90254 9.9871 9.37557 9.66161C8.8486 9.33612 8.24101 9.1647 7.62162 9.16676H3.33329C2.41413 9.16676 1.66663 9.91426 1.66663 10.8334V15.8334C1.66663 16.7526 2.41413 17.5001 3.33329 17.5001ZM3.33329 10.8334H7.62162C8.25746 10.8334 8.82829 11.1859 9.11246 11.7543L9.48496 12.5001H5.83329V14.1668H10.845C10.9732 14.1651 11.0992 14.1337 11.2133 14.0751L11.2158 14.0743L11.2191 14.0726H11.2216L11.2233 14.0718H11.2266L11.2275 14.0709C11.235 14.0734 11.23 14.0701 11.23 14.0701C11.2383 14.0701 11.2316 14.0693 11.2316 14.0693H11.2325L11.2341 14.0684L11.2366 14.0676L11.2383 14.0668L11.24 14.0659L11.2425 14.0651L11.2441 14.0643C11.2466 14.0643 11.245 14.0634 11.2458 14.0634L11.2483 14.0618L11.25 14.0609L11.2516 14.0601L11.2541 14.0593L11.2558 14.0584H11.2566L11.2583 14.0576L11.2608 14.0568L11.2625 14.0559C11.27 14.0551 11.265 14.0551 11.265 14.0551L11.2666 14.0543C11.2987 14.0349 11.3294 14.0131 11.3583 13.9893L14.8133 11.2251C15.0316 11.0518 15.3325 10.9976 15.5966 11.0859L16.0608 11.2409L12.6166 15.2601C12.4582 15.44 12.2633 15.5841 12.0449 15.683C11.8266 15.7818 11.5897 15.8331 11.35 15.8334H3.33329V10.8334ZM13.3333 1.66676H13.3191C13.1833 1.66842 12.4808 1.69926 11.6666 2.25426C10.8741 1.71426 10.1883 1.67092 10.0266 1.66759L10.0016 1.66676H9.99829C9.33079 1.66676 8.70246 1.92759 8.23246 2.39842C7.76079 2.87092 7.49996 3.49842 7.49996 4.16676C7.49996 4.83509 7.76079 5.46259 8.21746 5.92009L11.0625 8.90842C11.1407 8.98968 11.2346 9.0543 11.3384 9.09841C11.4423 9.14253 11.554 9.16522 11.6668 9.16515C11.7796 9.16507 11.8913 9.14222 11.9951 9.09796C12.0988 9.0537 12.1926 8.98895 12.2708 8.90759L15.1008 5.93426C15.5733 5.46259 15.8333 4.83509 15.8333 4.16676C15.8333 3.49842 15.5725 2.87092 15.1016 2.39926C14.8702 2.16638 14.5949 1.98172 14.2917 1.85599C13.9884 1.73025 13.6632 1.66593 13.335 1.66676H13.3333ZM14.1666 4.16676C14.1666 4.38926 14.08 4.59842 13.9075 4.77092L11.6666 7.12509L9.41079 4.75592C9.25329 4.59842 9.16662 4.38926 9.16662 4.16676C9.16662 3.94426 9.25329 3.73509 9.41162 3.57676C9.56232 3.42347 9.76752 3.336 9.98246 3.33342C10.0033 3.33426 10.4008 3.36009 10.8716 3.73759C10.9391 3.79176 11.0075 3.85342 11.0775 3.92259L11.6666 4.51176L12.2558 3.92259C12.3258 3.85342 12.3941 3.79176 12.4616 3.73759C12.9025 3.38342 13.275 3.33926 13.3383 3.33426C13.4469 3.33424 13.5544 3.35573 13.6547 3.39749C13.755 3.43926 13.846 3.50047 13.9225 3.57759C14.08 3.73509 14.1666 3.94426 14.1666 4.16676Z" fill="#E8711F"/>
</svg>
