<svg width="14" height="14" viewBox="0 0 14 14" fill="none" xmlns="http://www.w3.org/2000/svg">
<path d="M6.99988 13.4168C6.69046 13.4168 6.39371 13.2939 6.17492 13.0751C5.95613 12.8563 5.83321 12.5596 5.83321 12.2502H8.16654C8.16654 12.5596 8.04363 12.8563 7.82483 13.0751C7.60604 13.2939 7.3093 13.4168 6.99988 13.4168ZM11.6665 3.50016C11.6665 3.26942 11.5981 3.04385 11.4699 2.852C11.3417 2.66014 11.1595 2.51061 10.9463 2.4223C10.7332 2.334 10.4986 2.3109 10.2723 2.35591C10.046 2.40093 9.83808 2.51204 9.67492 2.6752C9.51176 2.83837 9.40064 3.04625 9.35563 3.27256C9.31061 3.49887 9.33371 3.73345 9.42202 3.94663C9.51032 4.15981 9.65985 4.34202 9.85171 4.47021C10.0436 4.59841 10.2691 4.66683 10.4999 4.66683C10.8093 4.66683 11.106 4.54391 11.3248 4.32512C11.5436 4.10633 11.6665 3.80958 11.6665 3.50016ZM12.079 10.0877L11.0832 9.092V5.8335H9.91654V9.3335C9.91658 9.48819 9.97806 9.63654 10.0875 9.74591L10.2584 9.91683H3.74138L3.91229 9.74591C4.0217 9.63654 4.08318 9.48819 4.08321 9.3335V5.8335C4.08149 5.40495 4.1746 4.98133 4.35588 4.59301C4.53716 4.20469 4.8021 3.86129 5.13172 3.58742C5.46134 3.31356 5.84748 3.11601 6.26243 3.00895C6.67739 2.90189 7.1109 2.88796 7.53188 2.96816L8.45821 2.04183C8.42772 2.01893 8.39487 1.99938 8.36021 1.9835C8.10785 1.89681 7.84761 1.83507 7.58321 1.79916V1.16683C7.58321 1.01212 7.52175 0.863747 7.41235 0.75435C7.30296 0.644954 7.15459 0.583496 6.99988 0.583496C6.84517 0.583496 6.69679 0.644954 6.5874 0.75435C6.478 0.863747 6.41654 1.01212 6.41654 1.16683V1.79683C5.44553 1.93698 4.55743 2.42205 3.91473 3.1633C3.27203 3.90455 2.91769 4.85242 2.91654 5.8335V9.092L1.92079 10.0877C1.83924 10.1693 1.7837 10.2733 1.7612 10.3864C1.7387 10.4995 1.75026 10.6168 1.7944 10.7234C1.83854 10.83 1.91329 10.921 2.00919 10.9851C2.1051 11.0492 2.21785 11.0835 2.33321 11.0835H11.6665C11.7819 11.0835 11.8947 11.0492 11.9906 10.9851C12.0865 10.921 12.1612 10.83 12.2054 10.7234C12.2495 10.6168 12.261 10.4995 12.2385 10.3864C12.2161 10.2733 12.1605 10.1693 12.079 10.0877Z" fill="#E8711F"/>
</svg>
