<svg width="14" height="14" viewBox="0 0 14 14" fill="none" xmlns="http://www.w3.org/2000/svg">
<g id="password-lock-svgrepo-com 1" clip-path="url(#clip0_332_1478)">
<g id="Layer 2">
<g id="Layer 7">
<g id="Group">
<path id="Vector" d="M11.3752 5.25016H10.2085V3.79183C10.2085 2.94093 9.87048 2.12487 9.2688 1.5232C8.66712 0.921516 7.85107 0.583496 7.00016 0.583496H6.41683C5.56593 0.583496 4.74987 0.921516 4.1482 1.5232C3.54652 2.12487 3.2085 2.94093 3.2085 3.79183V5.25016H2.04183C1.88712 5.25016 1.73875 5.31162 1.62935 5.42102C1.51995 5.53041 1.4585 5.67879 1.4585 5.8335V12.8335C1.4585 12.9882 1.51995 13.1366 1.62935 13.246C1.73875 13.3554 1.88712 13.4168 2.04183 13.4168H11.3752C11.5299 13.4168 11.6782 13.3554 11.7876 13.246C11.897 13.1366 11.9585 12.9882 11.9585 12.8335V5.8335C11.9585 5.67879 11.897 5.53041 11.7876 5.42102C11.6782 5.31162 11.5299 5.25016 11.3752 5.25016ZM4.37516 3.79183C4.37516 3.25035 4.59027 2.73104 4.97315 2.34815C5.35604 1.96527 5.87535 1.75016 6.41683 1.75016H7.00016C7.54165 1.75016 8.06095 1.96527 8.44384 2.34815C8.82673 2.73104 9.04183 3.25035 9.04183 3.79183V5.25016H4.37516V3.79183ZM10.7918 12.2502H2.62516V6.41683H10.7918V12.2502Z" fill="#E8711F"/>
<path id="Vector_2" d="M4.375 10.2085C4.85825 10.2085 5.25 9.81675 5.25 9.3335C5.25 8.85025 4.85825 8.4585 4.375 8.4585C3.89175 8.4585 3.5 8.85025 3.5 9.3335C3.5 9.81675 3.89175 10.2085 4.375 10.2085Z" fill="#E8711F"/>
<path id="Vector_3" d="M6.7085 10.2085C7.19175 10.2085 7.5835 9.81675 7.5835 9.3335C7.5835 8.85025 7.19175 8.4585 6.7085 8.4585C6.22525 8.4585 5.8335 8.85025 5.8335 9.3335C5.8335 9.81675 6.22525 10.2085 6.7085 10.2085Z" fill="#E8711F"/>
<path id="Vector_4" d="M9.04199 10.2085C9.52524 10.2085 9.91699 9.81675 9.91699 9.3335C9.91699 8.85025 9.52524 8.4585 9.04199 8.4585C8.55874 8.4585 8.16699 8.85025 8.16699 9.3335C8.16699 9.81675 8.55874 10.2085 9.04199 10.2085Z" fill="#E8711F"/>
</g>
</g>
</g>
</g>
<defs>
<clipPath id="clip0_332_1478">
<rect width="14" height="14" fill="white"/>
</clipPath>
</defs>
</svg>
