<svg width="10" height="10" viewBox="0 0 10 10" fill="none" xmlns="http://www.w3.org/2000/svg">
<g id="location-pin-svgrepo-com 1" clip-path="url(#clip0_332_1243)">
<path id="Vector" d="M5.03562 -0.00341797C2.98594 -0.00341797 1.25 1.74252 1.25 3.81033C1.25 5.97596 3.26219 8.19065 4.61563 9.74721C4.62094 9.75346 4.83969 9.99627 5.10906 9.99627H5.13281C5.4025 9.99627 5.61969 9.75346 5.625 9.74721C6.895 8.28721 8.75 5.8794 8.75 3.81033C8.75 1.74221 7.39594 -0.00341797 5.03562 -0.00341797ZM5.16094 9.32783C5.15 9.33877 5.13406 9.35096 5.12 9.36127C5.10563 9.35127 5.09 9.33877 5.07844 9.32783L4.915 9.13971C3.63188 7.66783 1.87469 5.6519 1.87469 3.81002C1.87469 2.08127 3.32219 0.620957 5.03531 0.620957C7.16938 0.620957 8.12469 2.22252 8.12469 3.81002C8.12469 5.20815 7.1275 7.06502 5.16094 9.32783ZM5.01094 1.88877C3.97563 1.88877 3.13594 2.72814 3.13594 3.76377C3.13594 4.79939 3.97563 5.63877 5.01094 5.63877C6.04625 5.63877 6.88594 4.79908 6.88594 3.76377C6.88594 2.72846 6.04656 1.88877 5.01094 1.88877ZM5.01094 5.01377C4.32156 5.01377 3.74656 4.43939 3.74656 3.75002C3.74656 3.06064 4.30719 2.50002 4.99656 2.50002C5.68625 2.50002 6.24656 3.06064 6.24656 3.75002C6.24688 4.43939 5.70062 5.01377 5.01094 5.01377Z" fill="#E8711F"/>
</g>
<defs>
<clipPath id="clip0_332_1243">
<rect width="10" height="10" fill="white"/>
</clipPath>
</defs>
</svg>
