<svg width="24" height="24" viewBox="0 0 24 24" fill="none" xmlns="http://www.w3.org/2000/svg">
<path fill-rule="evenodd" clip-rule="evenodd" d="M16.5002 7.063C16.5002 10.258 14.5702 13 12.0002 13C9.42822 13 7.50022 10.258 7.50022 7.062C7.50022 3.868 9.16022 2 12.0002 2C14.8402 2 16.5002 3.867 16.5002 7.063ZM4.10222 20.142C4.48722 20.6 6.14522 22 12.0002 22C17.8552 22 19.5122 20.6 19.8982 20.143C19.934 20.0991 19.9605 20.0483 19.9759 19.9938C19.9914 19.9393 19.9956 19.8822 19.9882 19.826C19.9002 18.944 19.1062 15 12.0002 15C4.89422 15 4.10022 18.944 4.01122 19.826C4.00398 19.8822 4.00831 19.9394 4.02396 19.9939C4.03961 20.0484 4.06624 20.0982 4.10222 20.142Z" />
</svg>
