<svg width="14" height="14" viewBox="0 0 14 14" fill="none" xmlns="http://www.w3.org/2000/svg">
<g id="profile-round-1345-svgrepo-com (1) 1" clip-path="url(#clip0_332_1473)">
<g id="Page-1">
<g id="Dribbble-Light-Preview">
<g id="icons">
<path id="profile_round-[#1345]" fill-rule="evenodd" clip-rule="evenodd" d="M9.8582 4.19999C9.8582 2.65579 8.5763 1.39999 7.00001 1.39999C5.42372 1.39999 4.14182 2.65579 4.14182 4.19999C4.14182 5.74419 5.42372 6.99999 7.00001 6.99999C8.5763 6.99999 9.8582 5.74419 9.8582 4.19999ZM12.562 14H11.2873C10.8929 14 10.5727 13.6864 10.5727 13.3C10.5727 12.9136 10.8929 12.6 11.2873 12.6H11.5938C12.0883 12.6 12.4534 12.1121 12.2662 11.6634C11.4009 9.58858 9.36873 8.39999 7.00001 8.39999C4.63129 8.39999 2.59911 9.58858 1.7338 11.6634C1.54658 12.1121 1.91173 12.6 2.4062 12.6H2.71272C3.10715 12.6 3.42727 12.9136 3.42727 13.3C3.42727 13.6864 3.10715 14 2.71272 14H1.43797C0.544787 14 -0.158327 13.1999 0.0310275 12.3452C0.551217 9.99388 2.17539 8.25857 4.31475 7.47107C3.33868 6.70177 2.71272 5.52299 2.71272 4.19999C2.71272 1.71429 4.9164 -0.266716 7.51377 0.0293838C9.39589 0.243584 10.955 1.71285 11.2373 3.54895C11.4802 5.13165 10.8193 6.57717 9.68527 7.47107C11.8246 8.25857 13.4488 9.99388 13.969 12.3452C14.1583 13.1999 13.4552 14 12.562 14ZM9.23011 10.8248C9.50949 11.0985 9.50949 11.5416 9.23011 11.8153L7.00001 14L5.48446 12.5153C5.20507 12.2416 5.20507 11.7985 5.48446 11.5248C5.76313 11.2518 6.21545 11.2518 6.49483 11.5248L7.00001 12.0204L8.21973 10.8248C8.49912 10.5518 8.95143 10.5518 9.23011 10.8248Z" fill="#E8711F"/>
</g>
</g>
</g>
</g>
<defs>
<clipPath id="clip0_332_1473">
<rect width="14" height="14" fill="white"/>
</clipPath>
</defs>
</svg>
