<svg width="15" height="15" viewBox="0 0 15 15" fill="none" xmlns="http://www.w3.org/2000/svg">
<g id="scan-qrcode-svgrepo-com 1" clip-path="url(#clip0_425_3977)">
<path id="Vector" d="M2.5 2.5H6.25V6.25H2.5V2.5ZM12.5 2.5V6.25H8.75V2.5H12.5ZM8.75 9.375H10V8.125H8.75V6.875H10V8.125H11.25V6.875H12.5V8.125H11.25V9.375H12.5V11.25H11.25V12.5H10V11.25H8.125V12.5H6.875V10H8.75V9.375ZM10 9.375V11.25H11.25V9.375H10ZM2.5 12.5V8.75H6.25V12.5H2.5ZM3.75 3.75V5H5V3.75H3.75ZM10 3.75V5H11.25V3.75H10ZM3.75 10V11.25H5V10H3.75ZM2.5 6.875H3.75V8.125H2.5V6.875ZM5.625 6.875H8.125V9.375H6.875V8.125H5.625V6.875ZM6.875 3.75H8.125V6.25H6.875V3.75ZM1.25 1.25V3.75H0V1.25C0 0.918479 0.131696 0.600537 0.366117 0.366117C0.600537 0.131696 0.918479 0 1.25 0L3.75 0V1.25H1.25ZM13.75 0C14.0815 0 14.3995 0.131696 14.6339 0.366117C14.8683 0.600537 15 0.918479 15 1.25V3.75H13.75V1.25H11.25V0H13.75ZM1.25 11.25V13.75H3.75V15H1.25C0.918479 15 0.600537 14.8683 0.366117 14.6339C0.131696 14.3995 0 14.0815 0 13.75V11.25H1.25ZM13.75 13.75V11.25H15V13.75C15 14.0815 14.8683 14.3995 14.6339 14.6339C14.3995 14.8683 14.0815 15 13.75 15H11.25V13.75H13.75Z" fill="white"/>
</g>
<defs>
<clipPath id="clip0_425_3977">
<rect width="15" height="15" fill="white"/>
</clipPath>
</defs>
</svg>
