<svg width="14" height="14" viewBox="0 0 14 14" fill="none" xmlns="http://www.w3.org/2000/svg">
<path d="M4.63756 5.04009C4.51921 5.16772 4.355 5.24311 4.18106 5.24968C4.00712 5.25624 3.83769 5.19344 3.71006 5.07509C3.58242 4.95673 3.50703 4.79252 3.50047 4.61858C3.4939 4.44464 3.55671 4.27522 3.67506 4.14759L6.51881 1.08509C6.58024 1.01882 6.65469 0.965961 6.73751 0.92981C6.82032 0.89366 6.9097 0.875 7.00006 0.875C7.09042 0.875 7.1798 0.89366 7.26261 0.92981C7.34542 0.965961 7.41988 1.01882 7.48131 1.08509L10.3251 4.14759C10.3837 4.21078 10.4292 4.28491 10.4592 4.36572C10.4892 4.44654 10.5029 4.53246 10.4997 4.61858C10.4964 4.70471 10.4762 4.78935 10.4403 4.86768C10.4043 4.94601 10.3533 5.01648 10.2901 5.07509C10.2269 5.13369 10.1527 5.17927 10.0719 5.20923C9.99111 5.23918 9.90519 5.25293 9.81906 5.24968C9.64512 5.24311 9.48091 5.16772 9.36256 5.04009L7.65631 3.20259V8.96884C7.65631 9.14288 7.58717 9.3098 7.4641 9.43287C7.34103 9.55595 7.17411 9.62509 7.00006 9.62509C6.82601 9.62509 6.65909 9.55595 6.53602 9.43287C6.41295 9.3098 6.34381 9.14288 6.34381 8.96884V3.20259L4.63756 5.04009Z" fill="#E8711F"/>
<path d="M1.75 8.09375C1.75 7.57161 1.95742 7.07085 2.32663 6.70163C2.69585 6.33242 3.19661 6.125 3.71875 6.125H4.375C4.54905 6.125 4.71597 6.19414 4.83904 6.31721C4.96211 6.44028 5.03125 6.6072 5.03125 6.78125C5.03125 6.9553 4.96211 7.12222 4.83904 7.24529C4.71597 7.36836 4.54905 7.4375 4.375 7.4375H3.71875C3.5447 7.4375 3.37778 7.50664 3.25471 7.62971C3.13164 7.75278 3.0625 7.9197 3.0625 8.09375V11.1562C3.0625 11.5185 3.3565 11.8125 3.71875 11.8125H10.2812C10.4553 11.8125 10.6222 11.7434 10.7453 11.6203C10.8684 11.4972 10.9375 11.3303 10.9375 11.1562V8.09375C10.9375 7.9197 10.8684 7.75278 10.7453 7.62971C10.6222 7.50664 10.4553 7.4375 10.2812 7.4375H9.625C9.45095 7.4375 9.28403 7.36836 9.16096 7.24529C9.03789 7.12222 8.96875 6.9553 8.96875 6.78125C8.96875 6.6072 9.03789 6.44028 9.16096 6.31721C9.28403 6.19414 9.45095 6.125 9.625 6.125H10.2812C10.8034 6.125 11.3042 6.33242 11.6734 6.70163C12.0426 7.07085 12.25 7.57161 12.25 8.09375V11.1562C12.25 11.6784 12.0426 12.1792 11.6734 12.5484C11.3042 12.9176 10.8034 13.125 10.2812 13.125H3.71875C3.19661 13.125 2.69585 12.9176 2.32663 12.5484C1.95742 12.1792 1.75 11.6784 1.75 11.1562V8.09375Z" fill="#E8711F"/>
</svg>
