<svg width="106" height="106" viewBox="0 0 106 106" fill="none" xmlns="http://www.w3.org/2000/svg">
<g id="success-achievement-award-medal-winner-svgrepo-com (1) 1">
<path id="Vector" d="M69.198 94.6214C66.6936 94.6121 64.2572 93.8058 62.2418 92.3192L55.0868 87.0854C54.1989 86.4317 53.1253 86.079 52.0227 86.079C50.9201 86.079 49.8465 86.4317 48.9586 87.0854L41.8036 92.3192C39.9534 93.6704 37.7504 94.4551 35.4626 94.5778C33.1747 94.7005 30.9004 94.156 28.9163 93.0104C26.9321 91.8648 25.3234 90.1675 24.2858 88.1248C23.2482 86.082 22.8263 83.7819 23.0715 81.5039L24.0321 72.6926C24.1554 71.5976 23.9244 70.492 23.3729 69.538C22.8214 68.5841 21.9785 67.8321 20.968 67.3926L12.869 63.8151C10.7676 62.8938 8.98014 61.3804 7.72503 59.4597C6.46992 57.539 5.80151 55.2942 5.80151 52.9998C5.80151 50.7054 6.46992 48.4606 7.72503 46.5399C8.98014 44.6192 10.7676 43.1057 12.869 42.1845L20.968 38.607C21.9785 38.1675 22.8214 37.4155 23.3729 36.4616C23.9244 35.5076 24.1554 34.402 24.0321 33.307L23.0715 24.4957C22.8263 22.2177 23.2482 19.9176 24.2858 17.8748C25.3234 15.8321 26.9321 14.1348 28.9163 12.9892C30.9004 11.8436 33.1747 11.2991 35.4626 11.4218C37.7504 11.5445 39.9534 12.3292 41.8036 13.6804L48.9586 18.9142C49.8465 19.5679 50.9201 19.9206 52.0227 19.9206C53.1253 19.9206 54.1989 19.5679 55.0868 18.9142L62.2418 13.6804C63.5159 12.7374 64.9699 12.0656 66.5139 11.7067C68.0579 11.3477 69.6592 11.3092 71.2186 11.5935C72.8117 11.8826 74.3299 12.4909 75.6819 13.3818C77.0339 14.2726 78.1917 15.4277 79.0858 16.7776C79.3337 17.1407 79.5068 17.5495 79.5951 17.9801C79.6834 18.4108 79.6851 18.8547 79.6001 19.2861C79.515 19.7174 79.345 20.1275 79.0998 20.4924C78.8547 20.8574 78.5394 21.1698 78.1722 21.4117C77.8051 21.6535 77.3935 21.8198 76.9614 21.901C76.5293 21.9821 76.0854 21.9764 75.6556 21.8842C75.2257 21.7921 74.8185 21.6152 74.4577 21.3641C74.0969 21.1129 73.7897 20.7925 73.554 20.4214C73.1542 19.8207 72.637 19.307 72.0336 18.9114C71.4302 18.5158 70.753 18.2463 70.0427 18.1192C69.3588 17.9931 68.656 18.0119 67.9798 18.1746C67.3037 18.3372 66.6692 18.6399 66.1174 19.0632L58.9624 24.297C56.9374 25.7812 54.492 26.5814 51.9813 26.5814C49.4706 26.5814 47.0252 25.7812 45.0002 24.297L37.8618 19.0632C37.0505 18.4472 36.0758 18.0839 35.0593 18.0186C34.0427 17.9533 33.0295 18.1888 32.1461 18.6959C31.2627 19.203 30.5482 19.9591 30.0919 20.8698C29.6356 21.7805 29.4578 22.8055 29.5805 23.8167L30.5411 32.6114C30.8299 35.0999 30.3175 37.6157 29.0784 39.793C27.8393 41.9704 25.9381 43.6958 23.6511 44.7185L15.5355 48.296C14.6156 48.7043 13.834 49.3708 13.2854 50.2145C12.7367 51.0583 12.4447 52.0431 12.4447 53.0495C12.4447 54.0559 12.7367 55.0407 13.2854 55.8845C13.834 56.7282 14.6156 57.3946 15.5355 57.8029L23.6511 61.281C25.9506 62.2897 27.8674 64.0069 29.1218 66.182C30.3762 68.3571 30.9025 70.8763 30.624 73.3717L29.6633 82.1664C29.5406 83.1776 29.7185 84.2025 30.1747 85.1132C30.631 86.0239 31.3455 86.78 32.2289 87.2871C33.1123 87.7942 34.1255 88.0298 35.1421 87.9645C36.1586 87.8991 37.1333 87.5358 37.9446 86.9198L45.083 81.6861C47.108 80.2018 49.5534 79.4016 52.0641 79.4016C54.5748 79.4016 57.0202 80.2018 59.0452 81.6861L66.2002 86.9198C67.0115 87.5358 67.9862 87.8991 69.0027 87.9645C70.0192 88.0298 71.0325 87.7942 71.9159 87.2871C72.7993 86.78 73.5138 86.0239 73.9701 85.1132C74.4263 84.2025 74.6042 83.1776 74.4815 82.1664L73.5208 73.3717C73.2318 70.8874 73.7425 68.3756 74.9785 66.2013C76.2146 64.027 78.1117 62.3035 80.3943 61.281L88.5099 57.7035C89.4298 57.2953 90.2114 56.6288 90.7601 55.7851C91.3087 54.9413 91.6007 53.9565 91.6007 52.9501C91.6007 51.9437 91.3087 50.9589 90.7601 50.1151C90.2114 49.2714 89.4298 48.605 88.5099 48.1967L84.1043 46.3748C83.6942 46.2078 83.3218 45.9604 83.009 45.647C82.6963 45.3337 82.4495 44.9608 82.2833 44.5504C82.1171 44.1401 82.0348 43.7006 82.0413 43.2579C82.0479 42.8152 82.1431 42.3783 82.3214 41.9731C82.4996 41.5678 82.7573 41.2024 83.0792 40.8985C83.4011 40.5945 83.7807 40.3581 84.1955 40.2034C84.6103 40.0486 85.0519 39.9786 85.4943 39.9974C85.9366 40.0162 86.3707 40.1235 86.7708 40.3129L91.1765 42.2507C93.2778 43.172 95.0653 44.6855 96.3204 46.6062C97.5755 48.5269 98.2439 50.7716 98.2439 53.066C98.2439 55.3605 97.5755 57.6052 96.3204 59.5259C95.0653 61.4466 93.2778 62.9601 91.1765 63.8814L83.0774 67.4589C82.0671 67.9 81.2237 68.6516 80.6697 69.6047C80.1158 70.5578 79.88 71.6627 79.9968 72.7589L80.9574 81.5701C81.2354 83.8505 80.8297 86.1621 79.7917 88.2116C78.7537 90.261 77.1303 91.9558 75.1274 93.0811C73.3197 94.1042 71.2752 94.6353 69.198 94.6214Z" fill="#5B4899"/>
<path id="Vector_2" d="M52.4037 64.5935C51.9666 64.5939 51.5337 64.5077 51.1301 64.34C50.7264 64.1723 50.36 63.9264 50.0518 63.6164L35.7915 49.356C35.4361 49.0607 35.1464 48.6942 34.9411 48.2801C34.7357 47.8661 34.6193 47.4137 34.5993 46.952C34.5793 46.4903 34.6561 46.0295 34.8248 45.5992C34.9935 45.169 35.2504 44.7788 35.5789 44.4537C35.9074 44.1287 36.3003 43.876 36.7324 43.7119C37.1644 43.5477 37.626 43.4759 38.0875 43.5008C38.5489 43.5257 39.0001 43.647 39.4119 43.8567C39.8237 44.0664 40.1871 44.36 40.4787 44.7185L52.4037 56.6435L94.5387 14.4423C95.1698 13.8724 95.9959 13.5671 96.8459 13.5895C97.696 13.612 98.5048 13.9604 99.105 14.5627C99.7052 15.1651 100.051 15.9752 100.07 16.8253C100.09 17.6754 99.7814 18.5004 99.2093 19.1295L54.739 63.5998C54.4342 63.9108 54.071 64.1587 53.6703 64.3292C53.2696 64.4997 52.8392 64.5895 52.4037 64.5935Z" fill="#E8711F"/>
</g>
</svg>
