<svg width="14" height="14" viewBox="0 0 14 14" fill="none" xmlns="http://www.w3.org/2000/svg">
<g id="support-svgrepo-com (1) 1">
<g id="Page-1">
<g id="support">
<path id="Vector" fill-rule="evenodd" clip-rule="evenodd" d="M11.5499 5.93817C11.369 4.08317 10.2724 1.1665 6.8832 1.1665C3.49403 1.1665 2.39737 4.08317 2.21653 5.93817C1.58216 6.17893 1.16372 6.78799 1.16652 7.4665V8.28317C1.16652 9.18524 1.8978 9.9165 2.79987 9.9165C3.70193 9.9165 4.4332 9.18524 4.4332 8.28317V7.4665C4.43027 6.80264 4.02719 6.20609 3.41237 5.95567C3.52903 4.88234 4.1007 2.33317 6.8832 2.33317C9.6657 2.33317 10.2315 4.88234 10.3482 5.95567C9.73461 6.20664 9.33358 6.80358 9.3332 7.4665V8.28317C9.33573 8.91024 9.6958 9.48092 10.2607 9.75317C10.0157 10.214 9.39153 10.8382 7.85737 11.0248C7.55069 10.5592 6.95737 10.3756 6.44129 10.5867C5.92521 10.7978 5.63066 11.3446 5.73828 11.8917C5.8459 12.4388 6.32561 12.8332 6.8832 12.8332C7.32381 12.8307 7.72546 12.5803 7.92153 12.1857C10.424 11.8998 11.2232 10.6107 11.474 9.85234C12.1526 9.63252 12.609 8.99643 12.5999 8.28317V7.4665C12.6027 6.78799 12.1842 6.17893 11.5499 5.93817ZM3.26653 8.28317C3.26653 8.5409 3.0576 8.74984 2.79987 8.74984C2.54213 8.74984 2.3332 8.5409 2.3332 8.28317V7.4665C2.3332 7.29978 2.42214 7.14572 2.56653 7.06236C2.71092 6.979 2.88881 6.979 3.0332 7.06236C3.17759 7.14572 3.26653 7.29978 3.26653 7.4665V8.28317ZM10.4999 7.4665C10.4999 7.20877 10.7088 6.99984 10.9665 6.99984C11.2243 6.99984 11.4332 7.20877 11.4332 7.4665V8.28317C11.4332 8.5409 11.2243 8.74984 10.9665 8.74984C10.7088 8.74984 10.4999 8.5409 10.4999 8.28317V7.4665Z" fill="#E8711F"/>
</g>
</g>
</g>
</svg>
