<svg width="20" height="20" viewBox="0 0 20 20" fill="none" xmlns="http://www.w3.org/2000/svg">
<path fill-rule="evenodd" clip-rule="evenodd" d="M7.80217 2.9488C6.33548 2.9488 5.14649 4.13779 5.14649 5.60448C5.14649 7.07116 6.33548 8.26016 7.80217 8.26016C9.26889 8.26016 10.4578 7.07116 10.4578 5.60448C10.4578 4.13779 9.26889 2.9488 7.80217 2.9488ZM3.86444 5.60448C3.86444 3.42973 5.62742 1.66675 7.80217 1.66675C9.97689 1.66675 11.7399 3.42973 11.7399 5.60448C11.7399 7.77922 9.97689 9.54225 7.80217 9.54225C5.62742 9.54225 3.86444 7.77922 3.86444 5.60448Z" fill="#E8711F"/>
<path fill-rule="evenodd" clip-rule="evenodd" d="M6.17629 12.8387C4.39376 12.8387 2.94874 14.2837 2.94874 16.0663C2.94874 16.155 2.96404 16.2162 2.9794 16.251C2.99178 16.2789 3.0009 16.2842 3.00495 16.2866C3.44463 16.545 4.70946 17.0511 7.80222 17.0511C10.8949 17.0511 12.1594 16.5451 12.5991 16.2868C12.6032 16.2844 12.6127 16.2789 12.625 16.251C12.6404 16.2162 12.6557 16.155 12.6557 16.0663C12.6557 14.2837 11.2107 12.8387 9.4281 12.8387H6.17629ZM1.66669 16.0663C1.66669 13.5757 3.6857 11.5566 6.17629 11.5566H9.4281C11.9187 11.5566 13.9378 13.5757 13.9378 16.0663C13.9378 16.4952 13.7928 17.0723 13.2487 17.3921C12.5318 17.8135 11.0074 18.3332 7.80222 18.3332C4.59701 18.3332 3.0727 17.8135 2.35571 17.3921C1.81167 17.0723 1.66669 16.4952 1.66669 16.0663Z" fill="#E8711F"/>
<path fill-rule="evenodd" clip-rule="evenodd" d="M12.9526 3.23932C13.045 2.89755 13.3969 2.69538 13.7386 2.78774C15.1526 3.16991 16.1355 4.56622 16.1355 6.15382C16.1355 7.83133 14.9857 9.34381 13.3731 9.53756C13.0216 9.57973 12.7025 9.32906 12.6602 8.97756C12.618 8.62606 12.8687 8.30684 13.2202 8.26463C14.0801 8.16132 14.8535 7.29782 14.8535 6.15382C14.8535 5.06842 14.188 4.23723 13.4041 4.02539C13.0624 3.93303 12.8602 3.58108 12.9526 3.23932Z" fill="#E8711F"/>
<path fill-rule="evenodd" clip-rule="evenodd" d="M14.8654 12.0751C14.9331 11.7276 15.2698 11.5008 15.6173 11.5686C17.1948 11.8763 18.3334 13.2583 18.3334 14.8656V15.3112C18.3334 15.7057 18.215 16.2676 17.7004 16.5966C17.3539 16.8181 16.8165 17.0541 15.9879 17.2216C15.6409 17.2919 15.3028 17.0675 15.2325 16.7205C15.1624 16.3735 15.3867 16.0353 15.7337 15.9651C16.4406 15.8221 16.8226 15.6361 17.0099 15.5164L17.0114 15.5149C17.0128 15.5131 17.0178 15.5064 17.0239 15.4913C17.0376 15.4581 17.0513 15.3986 17.0513 15.3112V14.8656C17.0513 13.8718 16.3473 13.0172 15.3719 12.827C15.0244 12.7591 14.7976 12.4226 14.8654 12.0751Z" fill="#E8711F"/>
</svg>
