<svg width="20" height="20" viewBox="0 0 20 20" fill="none" xmlns="http://www.w3.org/2000/svg">
<path fill-rule="evenodd" clip-rule="evenodd" d="M7.80224 2.9488C6.33554 2.9488 5.14655 4.13779 5.14655 5.60448C5.14655 7.07116 6.33554 8.26016 7.80224 8.26016C9.26895 8.26016 10.4579 7.07116 10.4579 5.60448C10.4579 4.13779 9.26895 2.9488 7.80224 2.9488ZM3.8645 5.60448C3.8645 3.42973 5.62749 1.66675 7.80224 1.66675C9.97695 1.66675 11.74 3.42973 11.74 5.60448C11.74 7.77922 9.97695 9.54225 7.80224 9.54225C5.62749 9.54225 3.8645 7.77922 3.8645 5.60448Z" fill="#E8711F"/>
<path fill-rule="evenodd" clip-rule="evenodd" d="M6.17636 12.8387C4.39382 12.8387 2.9488 14.2837 2.9488 16.0663C2.9488 16.155 2.9641 16.2162 2.97946 16.251C2.99184 16.2789 3.00096 16.2842 3.00501 16.2866C3.44469 16.545 4.70952 17.0511 7.80228 17.0511C10.895 17.0511 12.1595 16.5451 12.5992 16.2868C12.6032 16.2844 12.6127 16.2789 12.6251 16.251C12.6405 16.2162 12.6557 16.155 12.6557 16.0663C12.6557 14.2837 11.2107 12.8387 9.42816 12.8387H6.17636ZM1.66675 16.0663C1.66675 13.5757 3.68576 11.5566 6.17636 11.5566H9.42816C11.9187 11.5566 13.9378 13.5757 13.9378 16.0663C13.9378 16.4952 13.7928 17.0723 13.2487 17.3921C12.5318 17.8135 11.0075 18.3332 7.80228 18.3332C4.59707 18.3332 3.07276 17.8135 2.35577 17.3921C1.81173 17.0723 1.66675 16.4952 1.66675 16.0663Z" fill="#E8711F"/>
<path fill-rule="evenodd" clip-rule="evenodd" d="M12.9525 3.23932C13.0449 2.89755 13.3968 2.69538 13.7386 2.78774C15.1526 3.16991 16.1354 4.56622 16.1354 6.15382C16.1354 7.83133 14.9857 9.34381 13.3731 9.53756C13.0216 9.57973 12.7024 9.32906 12.6602 8.97756C12.6179 8.62606 12.8687 8.30684 13.2202 8.26462C14.0801 8.16132 14.8534 7.29782 14.8534 6.15382C14.8534 5.06842 14.1879 4.23723 13.4041 4.02539C13.0623 3.93303 12.8602 3.58108 12.9525 3.23932Z" fill="#E8711F"/>
<path fill-rule="evenodd" clip-rule="evenodd" d="M14.8652 12.0751C14.933 11.7276 15.2697 11.5008 15.6172 11.5686C17.1947 11.8763 18.3332 13.2583 18.3332 14.8656V15.3112C18.3332 15.7057 18.2149 16.2676 17.7002 16.5966C17.3537 16.8181 16.8164 17.0541 15.9878 17.2216C15.6408 17.2919 15.3027 17.0675 15.2324 16.7205C15.1622 16.3735 15.3866 16.0353 15.7336 15.9651C16.4405 15.8221 16.8225 15.6361 17.0097 15.5164L17.0112 15.5149C17.0127 15.5131 17.0177 15.5064 17.0238 15.4913C17.0375 15.4581 17.0512 15.3986 17.0512 15.3112V14.8656C17.0512 13.8718 16.3472 13.0172 15.3717 12.827C15.0242 12.7591 14.7975 12.4226 14.8652 12.0751Z" fill="#E8711F"/>
</svg>
