<svg width="37" height="37" viewBox="0 0 37 37" fill="none" xmlns="http://www.w3.org/2000/svg">
<path fill-rule="evenodd" clip-rule="evenodd" d="M14.4341 5.45504C11.7207 5.45504 9.52108 7.65468 9.52108 10.3681C9.52108 13.0814 11.7207 15.2811 14.4341 15.2811C17.1475 15.2811 19.347 13.0814 19.347 10.3681C19.347 7.65468 17.1475 5.45504 14.4341 5.45504ZM7.14929 10.3681C7.14929 6.34477 10.4108 3.08325 14.4341 3.08325C18.4573 3.08325 21.7189 6.34477 21.7189 10.3681C21.7189 14.3913 18.4573 17.6529 14.4341 17.6529C10.4108 17.6529 7.14929 14.3913 7.14929 10.3681Z" fill="#5C4799"/>
<path fill-rule="evenodd" clip-rule="evenodd" d="M11.4261 23.7517C8.12846 23.7517 5.45517 26.425 5.45517 29.7228C5.45517 29.8868 5.48347 30.0001 5.5119 30.0644C5.53479 30.116 5.55167 30.1259 5.55915 30.1302C6.37257 30.6083 8.71251 31.5447 14.4341 31.5447C20.1556 31.5447 22.495 30.6086 23.3083 30.1307C23.3159 30.1262 23.3335 30.116 23.3563 30.0644C23.3848 30.0001 23.413 29.8868 23.413 29.7228C23.413 26.425 20.7398 23.7517 17.442 23.7517H11.4261ZM3.08337 29.7228C3.08337 25.1152 6.81855 21.3799 11.4261 21.3799H17.442C22.0496 21.3799 25.7849 25.1152 25.7849 29.7228C25.7849 30.5163 25.5166 31.5839 24.5101 32.1754C23.1838 32.955 20.3638 33.9166 14.4341 33.9166C8.50448 33.9166 5.6845 32.955 4.35807 32.1754C3.35159 31.5839 3.08337 30.5163 3.08337 29.7228Z" fill="#5C4799"/>
<path fill-rule="evenodd" clip-rule="evenodd" d="M23.9623 5.99275C24.1332 5.36048 24.7843 4.98646 25.4165 5.15734C28.0324 5.86434 29.8506 8.44752 29.8506 11.3846C29.8506 14.488 27.7236 17.2861 24.7403 17.6445C24.0901 17.7225 23.4996 17.2588 23.4214 16.6085C23.3433 15.9582 23.8072 15.3677 24.4574 15.2896C26.0483 15.0985 27.4789 13.501 27.4789 11.3846C27.4789 9.37659 26.2478 7.83888 24.7977 7.44699C24.1654 7.27611 23.7914 6.62502 23.9623 5.99275Z" fill="#5C4799"/>
<path fill-rule="evenodd" clip-rule="evenodd" d="M27.5009 22.3389C27.6262 21.6961 28.2491 21.2766 28.8919 21.4021C31.8103 21.9713 33.9167 24.528 33.9167 27.5015V28.3259C33.9167 29.0557 33.6978 30.0952 32.7457 30.7037C32.1046 31.1135 31.1106 31.5501 29.5777 31.8601C28.9357 31.9901 28.3101 31.5749 28.1802 30.933C28.0504 30.291 28.4654 29.6654 29.1073 29.5354C30.4151 29.2709 31.1218 28.9268 31.4682 28.7054L31.471 28.7026C31.4736 28.6994 31.4829 28.6869 31.4943 28.659C31.5196 28.5976 31.5448 28.4876 31.5448 28.3259V27.5015C31.5448 25.6629 30.2424 24.082 28.4379 23.73C27.7951 23.6045 27.3756 22.9818 27.5009 22.3389Z" fill="#5C4799"/>
</svg>
